<?xml version="1.0" encoding="UTF-8"?> <svg xmlns="http://www.w3.org/2000/svg" width="167" height="136" viewBox="0 0 167 136" fill="none"><g clip-path="url(#clip0_820_19905)"><path d="M83.9257 51.1792H47.7846V113.092H83.9257V51.1792Z" fill="white"></path><path d="M99.0214 45.4297H27.3786V100.953H99.0214V45.4297Z" fill="white"></path><path d="M62.7695 123.968C61.0051 123.968 59.2236 123.874 57.4507 123.686C43.9574 122.279 31.7683 115.634 23.1252 104.971C14.2433 94.0011 10.1689 80.1565 11.6436 65.9792C13.1182 51.8104 19.9713 39.1089 30.9245 30.2203C41.5793 21.5706 54.885 17.5955 68.3782 19.0115C86.4573 20.8967 101.868 32.0202 109.608 48.7736C110.256 50.1811 110.154 51.819 109.318 53.1241C108.491 54.4292 107.059 55.2311 105.508 55.2396L102.78 55.2652H102.746C101.016 55.2652 99.4306 54.2842 98.6634 52.7232C92.5007 40.2263 80.7378 31.9178 67.1764 30.4933C56.7347 29.4099 46.4379 32.4894 38.1953 39.1856C29.6374 46.1293 24.2844 56.067 23.1252 67.182C21.9574 78.2969 25.1453 89.1303 32.0837 97.6947C38.7835 105.952 48.2108 111.104 58.644 112.196C69.0857 113.288 79.3825 110.2 87.6336 103.504C90.4464 101.226 92.9439 98.5904 95.0493 95.6901C95.9017 94.5129 97.2655 93.8135 98.7231 93.8135H101.698C101.698 93.8135 101.706 93.8049 101.715 93.8049C103.394 93.8049 104.945 94.7347 105.73 96.219C106.522 97.7033 106.429 99.5117 105.491 100.911C102.559 105.27 98.9958 109.159 94.9129 112.469C85.656 119.967 74.4131 123.959 62.7695 123.959V123.968Z" fill="white"></path><path d="M38.0419 90.1198C37.5475 90.1198 37.0531 90.043 36.5758 89.8724C29.7397 87.5436 20.5169 83.4235 15.3344 77.0344C12.4789 73.5028 11.2429 69.7836 11.6436 65.9706C11.9078 63.4712 14.1496 61.6713 16.6471 61.9187L19.0678 62.1746C20.2697 62.3026 21.3693 62.8997 22.1364 63.838C22.895 64.7764 23.253 65.9791 23.1252 67.1819C23.057 67.8217 23.4746 68.7344 24.3015 69.758C26.8075 72.8545 32.3565 76.079 39.5165 78.6125C41.315 79.2437 42.5254 80.9327 42.5595 82.8349L42.6021 85.4793C42.6277 86.9636 41.9288 88.3625 40.7269 89.2412C39.9342 89.8127 38.9966 90.1113 38.0419 90.1113V90.1198Z" fill="white"></path><path d="M37.9226 64.1537C37.2747 64.1537 36.6184 64.0173 36.0132 63.7358C30.2255 61.0658 25.8699 57.9608 23.057 54.5145C19.7753 50.4456 19.4003 46.7349 19.656 44.3379C19.9287 41.8386 22.1705 40.0302 24.668 40.2946L27.0802 40.5505C29.5777 40.8149 31.3933 43.0584 31.1291 45.5578C31.112 45.6857 31.2484 46.2743 32.0241 47.2297C33.4987 49.0552 36.303 51.0257 39.9001 52.7829C41.46 53.5421 42.4572 55.1287 42.4658 56.8689V59.5815C42.4828 61.1426 41.6901 62.5927 40.3774 63.4287C39.6273 63.9064 38.7749 64.1537 37.914 64.1537H37.9226Z" fill="white"></path><path d="M68.0373 115.241C64.9175 115.241 61.7211 115.079 58.482 114.738C41.5026 112.972 27.6428 107.76 20.4657 100.459C19.7156 99.6993 19.2639 98.7013 19.1701 97.635L18.8121 93.3102C18.6331 91.2032 19.9373 89.2497 21.9489 88.6014C23.9605 87.9531 26.1511 88.7635 27.2507 90.5719C30.1403 95.3404 41.5196 101.346 59.6839 103.248C78.4534 105.201 91.7676 100.134 94.8618 96.0996C96.004 94.6068 97.9474 93.967 99.7545 94.4959C101.562 95.0247 102.857 96.6028 103.019 98.4795L103.309 101.798C103.428 103.205 102.9 104.587 101.86 105.543C95.1857 111.701 82.4852 115.233 68.0458 115.233L68.0373 115.241Z" fill="white"></path><path d="M63.835 55.4102C62.5479 55.4102 61.3205 54.8643 60.4511 53.9089C59.5816 52.945 59.164 51.6654 59.3003 50.3774L62.045 24.1553C62.3093 21.656 64.551 19.8305 67.04 20.0949L69.4522 20.3423C70.6541 20.4703 71.7622 21.0674 72.5208 22.0057C73.2794 22.944 73.6374 24.1468 73.5181 25.3496L70.799 51.3157C70.5603 53.6359 68.6084 55.3932 66.2814 55.4017H63.8435C63.8435 55.4017 63.835 55.4017 63.8265 55.4017L63.835 55.4102Z" fill="white"></path><path d="M59.2662 122.629C59.1043 122.629 58.9509 122.629 58.7889 122.603L56.3767 122.347C53.8792 122.083 52.0551 119.848 52.3193 117.34L54.3309 98.0445C54.5696 95.7243 56.5216 93.967 58.8486 93.9585H61.2949C61.2949 93.9585 61.3034 93.9585 61.312 93.9585C62.5991 93.9585 63.8265 94.5044 64.6874 95.4598C65.5568 96.4237 65.9745 97.7033 65.8381 98.9914L63.7924 118.543C63.5452 120.889 61.5677 122.629 59.2662 122.629Z" fill="white"></path><path d="M59.4367 121.75C58.8486 121.75 58.2604 121.716 57.6723 121.656C48.7393 120.709 41.494 112.751 37.7777 99.8103C37.3856 98.4369 37.6583 96.9611 38.5107 95.8181C39.3716 94.675 40.7099 94.0011 42.1419 94.0011H44.6905C44.6905 94.0011 44.699 94.0011 44.7075 94.0011C46.7192 94.0011 48.4921 95.3233 49.0717 97.2426C51.3817 104.937 55.0555 109.774 58.8827 110.183C60.5789 110.345 62.4712 109.62 64.4914 107.982C67.398 105.619 70.1938 101.67 72.572 96.5602C73.3135 94.9565 74.9245 93.9329 76.689 93.9244H79.4081C79.4081 93.9244 79.4081 93.9244 79.4166 93.9244C80.9509 93.9244 82.3914 94.7006 83.2268 95.9887C84.0706 97.2768 84.1985 98.9146 83.5762 100.322C80.3968 107.505 76.3139 113.262 71.7622 116.956C67.8157 120.146 63.6816 121.759 59.4367 121.759V121.75ZM43.8466 55.5211C42.3976 55.5211 41.0252 54.8302 40.1729 53.653C39.3119 52.4758 39.0648 50.9574 39.5165 49.567C45.5599 30.7578 56.5471 19.8305 68.1737 21.0503C78.7517 22.1507 86.7897 32.9756 89.6708 50.0276C89.8924 51.3498 89.5259 52.6976 88.665 53.7212C87.8041 54.7449 86.534 55.342 85.1958 55.342H82.7153C82.7153 55.342 82.7068 55.342 82.6983 55.342C80.4906 55.342 78.5898 53.7553 78.2147 51.5716C76.3139 40.687 71.7963 33.0353 66.9803 32.5235C61.5421 31.969 54.8679 40.124 50.7595 52.3905C50.1372 54.2416 48.4069 55.4955 46.4549 55.5041H43.8722C43.8722 55.5041 43.8637 55.5041 43.8551 55.5041L43.8466 55.5211Z" fill="white"></path><path d="M61.4228 122.202C60.1527 122.202 58.8912 122.134 57.6211 122.006C47.4096 120.94 37.9481 115.634 30.9842 107.052C23.6366 97.9677 19.5707 85.9826 19.5281 73.2981C19.5281 71.1314 19.6389 68.9562 19.8691 66.8151C21.2585 53.4823 26.9609 41.3267 35.9195 32.6258C45.0996 23.7117 56.5727 19.4721 68.2077 20.692C78.4449 21.7583 87.8978 27.0726 94.8533 35.6455C98.0667 39.6292 100.667 44.1587 102.576 49.1063C103.121 50.5053 102.934 52.0919 102.081 53.3288C101.229 54.5657 99.8227 55.3078 98.3225 55.3078H95.7057C93.856 55.3078 92.2023 54.1903 91.4949 52.4843C90.0373 48.9442 88.1535 45.7283 85.8777 42.9304C80.8742 36.7459 74.1744 32.9329 67.0059 32.1822C49.6002 30.3653 33.5924 46.4534 31.3336 68.052C30.0977 79.9261 33.2344 91.4932 39.9512 99.7846C44.9547 105.952 51.663 109.774 58.8315 110.524C69.3414 111.616 79.8172 106.14 86.8664 95.8522C87.7188 94.6153 89.1167 93.8731 90.6169 93.8731H93.5321C95.1942 93.8731 96.7285 94.7773 97.5212 96.236C98.3225 97.6947 98.2628 99.4775 97.3678 100.876C88.8269 114.286 75.3166 122.202 61.4143 122.202H61.4228Z" fill="white"></path><path d="M72.5634 49.439C70.2535 49.439 67.8838 49.3196 65.5313 49.0722C50.7424 47.5197 36.2945 41.4206 37.36 31.3037C37.5475 29.4867 38.4084 26.8082 41.4259 24.3771C46.8129 20.0437 57.911 17.8344 68.4208 19.0201C80.8486 20.402 97.8622 27.0556 96.7711 37.5308C96.3961 41.105 93.9753 45.8563 84.5224 48.168C81.0788 49.0125 76.9276 49.439 72.5634 49.439ZM49.9497 32.5832C52.3108 34.1869 57.8087 36.6436 66.7331 37.582C75.4871 38.5032 81.3174 37.2919 84.0195 36.2256C81.2492 34.2552 74.9757 31.3719 67.1338 30.5018C60.3147 29.7426 53.3422 30.9028 49.9412 32.5917L49.9497 32.5832Z" fill="white"></path><path d="M62.8463 49.4134C62.7866 49.4134 62.7269 49.4134 62.6673 49.4134C61.1415 49.3708 59.8885 48.9528 58.8997 48.3216L39.7637 48.3813C38.5959 48.3813 37.3941 47.9121 36.5417 47.0591C35.6808 46.2061 35.2035 45.046 35.1949 43.8432L35.1097 14.9768C35.1097 12.4603 37.1384 10.4131 39.6529 10.4045L86.0993 10.2595H86.1163C87.3182 10.2595 88.4774 10.7372 89.3298 11.5817C90.1822 12.4347 90.6681 13.5949 90.6766 14.7976L90.7618 43.664C90.7618 46.1805 88.7332 48.2277 86.2186 48.2363L66.7246 48.296C65.7103 48.9869 64.4061 49.4134 62.8548 49.4134H62.8463ZM60.8091 39.2027C61.4995 39.2027 62.1558 39.3563 62.744 39.6378C63.3321 39.3563 63.997 39.1942 64.6874 39.1942L81.6243 39.143L81.5646 19.3954L44.2302 19.5149L44.2899 39.2624L60.792 39.2113H60.8091V39.2027Z" fill="white"></path><path d="M63.656 47.3234C62.4542 47.3234 61.2949 46.8457 60.4425 46.0013C59.5816 45.1482 59.1043 43.9881 59.0958 42.7853L59.0105 15.915C59.0105 13.3986 61.0392 11.3513 63.5537 11.3428L84.9997 11.2745H85.0168C87.5228 11.2745 89.56 13.3047 89.5685 15.8212L89.6537 42.6915C89.6537 43.9028 89.1849 45.0629 88.3325 45.9159C87.4801 46.769 86.3209 47.2552 85.119 47.2637L63.6731 47.332H63.656V47.3234ZM68.1396 20.436L68.1907 38.1875L80.5247 38.1534L80.4736 20.4019L68.1396 20.436Z" fill="white"></path><path d="M40.6246 47.2638C38.1186 47.2638 36.0814 45.2335 36.0729 42.7171L35.9876 15.8553C35.9876 14.644 36.4565 13.4839 37.3088 12.6309C38.1612 11.7693 39.3205 11.2916 40.5223 11.2831L61.9683 11.2148H61.9854C64.4914 11.2148 66.5286 13.245 66.5371 15.7615L66.6223 42.6233C66.6223 43.8346 66.1535 44.9947 65.3011 45.8477C64.4487 46.7093 63.2895 47.187 62.0876 47.1955L40.6417 47.2638H40.6246ZM45.1082 20.3849L45.1593 38.1278L57.5018 38.0937L57.4507 20.3508L45.1082 20.3849Z" fill="white"></path><path d="M63.656 47.3234C62.4542 47.3234 61.2949 46.8457 60.4425 46.0013C59.5816 45.1482 59.1043 43.9881 59.0958 42.7853L59.0105 15.915C59.0105 13.3986 61.0392 11.3513 63.5537 11.3428L84.9997 11.2745H85.0168C87.5228 11.2745 89.56 13.3047 89.5685 15.8212L89.6537 42.6915C89.6537 43.9028 89.1849 45.0629 88.3325 45.9159C87.4801 46.769 86.3209 47.2552 85.119 47.2637L63.6731 47.332H63.656V47.3234ZM68.1396 20.436L68.1907 38.1875L80.5247 38.1534L80.4736 20.4019L68.1396 20.436Z" fill="white"></path><path d="M63.6049 47.204C62.7525 47.204 61.9001 46.9652 61.1585 46.4875C59.8544 45.6515 59.0531 44.2099 59.0531 42.6574L58.9679 15.7871C58.9679 14.0042 59.9993 12.3835 61.6103 11.6328L75.6746 5.14129C77.0811 4.49299 78.7262 4.60388 80.0303 5.43985C81.3345 6.27581 82.1272 7.71743 82.1357 9.26994L82.2209 36.1403C82.2209 37.9231 81.1896 39.5438 79.5786 40.2945L65.5142 46.7946C64.909 47.0761 64.2527 47.2126 63.6049 47.2126V47.204ZM68.0884 18.6874L68.1396 35.5346L73.109 33.24L73.0578 16.4012L68.0884 18.6959V18.6874Z" fill="white"></path><path d="M63.6049 47.204C62.7525 47.204 61.9001 46.9652 61.1585 46.4875C59.8544 45.6515 59.0531 44.2099 59.0531 42.6574L58.9679 15.7871C58.9679 14.0042 59.9993 12.3835 61.6103 11.6328L75.6746 5.14129C77.0811 4.49299 78.7262 4.60388 80.0303 5.43985C81.3345 6.27581 82.1272 7.71743 82.1357 9.26994L82.2209 36.1403C82.2209 37.9231 81.1896 39.5438 79.5786 40.2945L65.5142 46.7946C64.909 47.0761 64.2527 47.2126 63.6049 47.2126V47.204ZM68.0884 18.6874L68.1396 35.5346L73.109 33.24L73.0578 16.4012L68.0884 18.6959V18.6874Z" fill="white"></path><path d="M62.9485 47.0932C62.4456 47.0932 61.9427 47.0079 61.4483 46.8372C59.6242 46.1975 58.3968 44.4829 58.3883 42.5465L58.3031 15.6762C58.3031 14.6355 58.6525 13.6289 59.2918 12.8185L67.2872 2.77842C68.489 1.26857 70.5177 0.679977 72.3503 1.31122C74.1744 1.95099 75.4019 3.66557 75.4104 5.60194L75.4956 32.4723C75.4956 33.513 75.1462 34.5195 74.5069 35.3299L66.5115 45.37C65.6336 46.479 64.3124 47.0846 62.9485 47.0846V47.0932Z" fill="white"></path><path d="M62.9485 47.0932C62.4456 47.0932 61.9427 47.0079 61.4483 46.8372C59.6242 46.1975 58.3968 44.4829 58.3883 42.5465L58.3031 15.6762C58.3031 14.6355 58.6525 13.6289 59.2918 12.8185L67.2872 2.77842C68.489 1.26857 70.5177 0.679977 72.3503 1.31122C74.1744 1.95099 75.4019 3.66557 75.4104 5.60194L75.4956 32.4723C75.4956 33.513 75.1462 34.5195 74.5069 35.3299L66.5115 45.37C65.6336 46.479 64.3124 47.0846 62.9485 47.0846V47.0932Z" fill="white"></path><path d="M40.6246 47.2638C38.1186 47.2638 36.0814 45.2335 36.0729 42.7171L35.9876 15.8553C35.9876 14.644 36.4565 13.4839 37.3088 12.6309C38.1612 11.7693 39.3205 11.2916 40.5223 11.2831L61.9683 11.2148H61.9854C64.4914 11.2148 66.5286 13.245 66.5371 15.7615L66.6223 42.6233C66.6223 43.8346 66.1535 44.9947 65.3011 45.8477C64.4487 46.7093 63.2895 47.187 62.0876 47.1955L40.6417 47.2638H40.6246ZM45.1082 20.3849L45.1593 38.1278L57.5018 38.0937L57.4507 20.3508L45.1082 20.3849Z" fill="white"></path><path d="M62.0194 47.0762C61.3802 47.0762 60.7323 46.9397 60.1357 46.6667L46.0287 40.2519C44.4092 39.5183 43.3608 37.8976 43.3608 36.1148L43.2755 9.26148C43.2755 7.70897 44.0512 6.25883 45.3553 5.42286C46.6595 4.57836 48.2961 4.45894 49.711 5.09871L63.818 11.5049C65.4375 12.2385 66.4859 13.8593 66.4945 15.6421L66.5797 42.5125C66.5797 44.065 65.7955 45.5151 64.4999 46.3596C63.7498 46.8458 62.8889 47.0932 62.028 47.0932L62.0194 47.0762ZM52.4557 33.1633L57.4421 35.4323L57.391 18.5936L52.4046 16.3331L52.4557 33.1633Z" fill="white"></path><path d="M62.0194 47.0762C61.3802 47.0762 60.7323 46.9397 60.1357 46.6667L46.0287 40.2519C44.4092 39.5183 43.3608 37.8976 43.3608 36.1148L43.2755 9.26148C43.2755 7.70897 44.0512 6.25883 45.3553 5.42286C46.6595 4.57836 48.2961 4.45894 49.711 5.09871L63.818 11.5049C65.4375 12.2385 66.4859 13.8593 66.4945 15.6421L66.5797 42.5125C66.5797 44.065 65.7955 45.5151 64.4999 46.3596C63.7498 46.8458 62.8889 47.0932 62.028 47.0932L62.0194 47.0762ZM52.4557 33.1633L57.4421 35.4323L57.391 18.5936L52.4046 16.3331L52.4557 33.1633Z" fill="white"></path><path d="M62.6843 46.9482C61.3375 46.9482 60.0249 46.351 59.1384 45.2592L51.0748 35.2873C50.4185 34.4769 50.0605 33.4703 50.0605 32.4382L49.9753 5.56783C49.9753 3.63146 51.1856 1.90835 53.0097 1.26005C54.8339 0.611748 56.8625 1.18328 58.0814 2.69313L66.145 12.6821C66.7928 13.4925 67.1508 14.4905 67.1593 15.5312L67.2446 42.393C67.2446 44.3294 66.0342 46.0525 64.2186 46.7008C63.7157 46.8799 63.2043 46.9652 62.6928 46.9652L62.6843 46.9482Z" fill="white"></path><path d="M62.6843 46.9482C61.3375 46.9482 60.0249 46.351 59.1384 45.2592L51.0748 35.2873C50.4185 34.4769 50.0605 33.4703 50.0605 32.4382L49.9753 5.56783C49.9753 3.63146 51.1856 1.90835 53.0097 1.26005C54.8339 0.611748 56.8625 1.18328 58.0814 2.69313L66.145 12.6821C66.7928 13.4925 67.1508 14.4905 67.1593 15.5312L67.2446 42.393C67.2446 44.3294 66.0342 46.0525 64.2186 46.7008C63.7157 46.8799 63.2043 46.9652 62.6928 46.9652L62.6843 46.9482Z" fill="white"></path><path d="M15.2236 55.4955C14.0217 55.4955 12.8625 55.0178 12.0016 54.1648L6.52926 48.6969C4.95235 47.1188 4.74778 44.6365 6.0434 42.8195C6.09455 42.7513 6.16274 42.6574 6.21388 42.5807C6.36731 42.3845 6.53779 42.1883 6.72531 41.9836C6.78498 41.9238 6.84464 41.8556 6.91284 41.8044C6.9725 41.7532 7.03217 41.6935 7.09184 41.6423C7.11741 40.9087 7.32198 40.1751 7.71408 39.5012C7.84193 39.288 7.99536 39.0662 8.14879 38.87C8.19141 38.8188 8.24255 38.7506 8.28517 38.7079C9.93027 36.7716 11.8226 36.0038 14.2519 36.2768C14.3371 36.2853 14.5076 36.3109 14.5928 36.328L18.9314 37.1128C20.5851 36.6607 22.3666 37.181 23.5258 38.4776C24.7788 39.8851 25.0345 41.9324 24.1651 43.6043L22.9291 45.9928C22.8013 46.2402 22.6564 46.4619 22.4944 46.6752C22.4177 46.9311 22.3069 47.187 22.179 47.4344L21.0454 49.6267C20.9175 49.8741 20.7726 50.1044 20.6021 50.3176C20.5169 50.5991 20.4061 50.8721 20.2697 51.1365L19.2724 53.0473C18.599 54.3354 17.3545 55.2225 15.9225 55.4358C15.6924 55.4699 15.4622 55.487 15.2321 55.487L15.2236 55.4955Z" fill="white"></path><path d="M13.8001 60.2809C13.2972 60.2809 12.7943 60.1956 12.3169 60.0335L10.5696 59.4279C10.3053 59.3341 10.0581 59.2232 9.81946 59.0867C8.54941 59.3767 7.1856 59.1208 6.09454 58.3104L4.46649 57.1077C2.86401 55.9305 2.2162 53.8406 2.86401 51.9639L4.50911 47.1699C5.10578 45.4297 6.68269 44.227 8.51531 44.099C9.91322 44.0052 11.2429 44.5596 12.1635 45.5577L14.8485 46.479C16.1101 46.3254 17.4142 46.7007 18.4115 47.5708C19.8009 48.7907 20.3208 50.727 19.7242 52.4757L18.1132 57.193C17.7211 58.336 16.8942 59.2829 15.8032 59.8118C15.1724 60.1188 14.4905 60.2724 13.8001 60.2724V60.2809ZM11.3282 45.2847L11.3964 45.3103C11.3964 45.3103 11.3452 45.2932 11.3282 45.2847Z" fill="white"></path><path d="M12.4363 65.2712C12.1038 65.2712 11.7629 65.2371 11.4219 65.1518L9.98994 64.8191C9.92175 64.802 9.85356 64.7849 9.78537 64.7679C8.87331 64.9726 7.81636 64.9811 6.59745 64.657C4.60287 64.1025 3.05153 62.84 2.19063 61.0913C1.5002 59.6924 0.946146 57.3636 2.22472 54.1733C2.33553 53.9003 2.42929 53.6785 2.5401 53.4568L2.65091 53.2179C3.41806 51.5886 5.08873 50.5735 6.86169 50.6076L8.92446 50.6503C9.93027 50.6674 10.8679 51.0171 11.6265 51.6057C13.4762 51.7507 15.1213 52.5867 16.2464 53.96C17.6443 55.6746 18.0791 57.9522 17.4824 60.3833C17.329 61.0658 17.0392 61.8079 16.6385 62.5756C16.5192 62.8145 16.4084 63.0107 16.3146 63.1557C15.4622 64.4864 13.9791 65.2797 12.4448 65.2797L12.4363 65.2712Z" fill="white"></path><path d="M11.7203 71.2936C11.1151 71.2936 10.5014 71.1742 9.93027 70.9268L8.48975 70.3126C7.69703 69.9714 7.02365 69.4169 6.53779 68.726C5.3615 69.161 4.03178 69.1013 2.87254 68.5042C1.16777 67.6256 0.187527 65.766 0.443242 63.8552L0.852386 60.7246C1.09958 58.8309 2.51453 57.2869 4.38126 56.8689C5.60869 56.5959 6.85317 56.8433 7.85898 57.5001C8.03798 57.3295 8.23403 57.176 8.44713 57.031C9.73423 56.1694 11.3708 56.0159 12.7943 56.6386L14.2348 57.2613C16.1015 58.0717 17.2096 60.0251 16.9369 62.0468L16.2294 67.3441C16.0419 68.7516 15.2065 69.997 13.962 70.6965C13.2631 71.0889 12.4874 71.2936 11.7118 71.2936H11.7203ZM5.80474 68.598C5.80474 68.598 5.83031 68.598 5.83883 68.598H5.80474ZM7.21117 57.5513H7.27084C7.27084 57.5513 7.23674 57.5513 7.21117 57.5513Z" fill="white"></path><path d="M6.72531 80.02C6.35878 80.02 5.99226 79.9858 5.62573 79.9261C2.74468 79.5081 0.681909 77.2732 0.179002 73.972C0.144907 73.7502 0.102288 73.4431 0.0937638 73.0849L1.59943e-06 69.5448C-0.0426176 67.762 0.954671 66.1242 2.54863 65.3394C3.86982 64.6911 5.39559 64.7337 6.66564 65.3991L9.5467 65.3223C10.8423 64.6825 12.3766 64.6911 13.6722 65.365C15.1383 66.1327 16.076 67.6425 16.1186 69.2974L16.2038 73.1446V73.5796C16.1356 75.5928 15.2747 77.3671 13.8171 78.5016C12.4192 79.5849 10.6037 80.0029 8.80513 79.6532C8.14879 79.892 7.44131 80.0114 6.71679 80.0114L6.72531 80.02Z" fill="white"></path><path d="M7.53507 86.5542C7.30493 86.5542 7.07479 86.5371 6.84464 86.503L4.82449 86.1959C2.83844 85.8888 1.27858 84.3107 1.00581 82.3147L0.30686 77.2989C0.059669 75.5331 0.869434 73.7844 2.36963 72.829C3.58001 72.0528 5.07169 71.9077 6.38436 72.394L9.25689 71.9845C10.3991 71.2253 11.8481 71.0121 13.1864 71.4471C14.84 71.9845 16.0504 73.4261 16.2891 75.1578L16.6897 78.0751C16.9539 79.9774 15.9992 81.8455 14.2945 82.7412C13.5444 83.1336 12.7261 83.3042 11.9163 83.253C11.8396 83.5345 11.7288 83.8075 11.5924 84.0804C10.8082 85.6244 9.23132 86.5713 7.53507 86.5713V86.5542Z" fill="white"></path><path d="M9.95585 93.4381C9.29099 93.4381 8.59203 93.3528 7.91012 93.1907C5.33593 92.551 3.2902 90.8023 2.29292 88.3712C2.29292 88.3541 2.27587 88.337 2.26734 88.32C1.31267 85.9315 1.44053 83.3298 2.6083 81.1972C3.76754 79.0817 5.85588 77.5889 8.32779 77.1197C10.3309 76.7359 12.3937 77.0771 14.1411 78.0836C15.5901 78.9281 16.63 80.0712 17.3375 81.5811C18.5564 84.2169 18.5053 87.0404 17.1926 89.3521C15.9055 91.6297 13.587 93.0969 10.8338 93.3784C10.5525 93.4125 10.2542 93.4296 9.94732 93.4296L9.95585 93.4381ZM9.14608 85.5732C9.2228 85.6756 9.41032 85.8803 9.5808 85.9827C9.7598 86.085 9.93027 86.1106 10.0326 86.085C10.1093 86.068 10.3138 85.9827 10.4928 85.7438L10.2627 85.1211L9.13756 85.5732H9.14608ZM10.2712 85.1211L10.5014 85.7438C10.5014 85.7438 10.544 85.6756 10.5696 85.6415C10.7571 85.3344 10.7571 85.0358 10.723 84.942L10.2712 85.1297V85.1211ZM9.9388 84.3193C9.9388 84.3193 9.87061 84.3193 9.81946 84.3278C9.80242 84.3278 9.53818 84.4643 9.32508 84.7714C9.10346 85.0955 9.08641 85.4282 9.11199 85.5391C9.11199 85.5391 9.11199 85.5391 9.11199 85.5476L10.2371 85.087L9.95585 84.3193C9.95585 84.3193 9.93027 84.3193 9.92175 84.3193H9.9388ZM9.97289 84.3193L10.2542 85.0785L10.7059 84.8908C10.5951 84.6264 10.3309 84.396 10.0752 84.3278C10.0496 84.3278 10.0155 84.3107 9.96437 84.3107L9.97289 84.3193Z" fill="white"></path><path d="M12.4022 100.936C12.1039 100.936 11.814 100.919 11.5157 100.885C8.87332 100.604 6.60598 99.1449 5.29331 96.8587C4.01473 94.6238 3.77606 92.0306 4.63697 89.7616C5.48935 87.501 7.35608 85.7353 9.73423 84.9249C11.635 84.2681 13.7319 84.3193 15.6072 85.0699C17.15 85.7012 18.3263 86.6736 19.2383 88.047C20.8493 90.5464 21.1817 93.3613 20.2015 95.8266C19.2383 98.2577 17.1414 100.023 14.465 100.689C13.7745 100.859 13.0756 100.945 12.3937 100.945L12.4022 100.936ZM10.8679 93.6599L11.7203 93.1737C11.8226 93.2846 12.0271 93.4466 12.1891 93.5149C12.3766 93.5917 12.5556 93.5917 12.692 93.549C12.7772 93.5234 12.9477 93.3869 13.0841 93.1566L12.7687 92.5766H12.7858L13.1011 93.1396C13.1182 93.1054 13.1352 93.0713 13.1523 93.0372C13.2887 92.7216 13.2546 92.4315 13.212 92.3292C13.0415 92.0392 12.7176 91.86 12.4959 91.8344C12.4533 91.8344 12.4192 91.8344 12.3851 91.8344L12.7943 92.5766H12.7772L12.3766 91.8344C12.3425 91.8344 12.3255 91.8344 12.3255 91.8344C12.2232 91.86 11.976 92.0306 11.814 92.3548C11.6436 92.7045 11.6691 93.0372 11.7032 93.1396C11.7118 93.1481 11.7203 93.1651 11.7373 93.1737L10.8849 93.6599H10.8679Z" fill="white"></path><path d="M15.6583 110.755C14.0558 110.755 12.5727 109.91 11.7458 108.528L10.4161 106.293C9.50408 105.688 8.80512 104.749 8.51531 103.598C8.48974 103.495 8.44712 103.316 8.43008 103.214L8.39598 103.018C8.39598 102.966 8.37893 102.915 8.37041 102.873C8.37041 102.856 8.37041 102.83 8.36189 102.813C8.26812 102.685 8.18288 102.557 8.09765 102.42L6.83612 100.313C5.99226 98.906 5.97521 97.1488 6.78498 95.7242C7.64588 94.2058 9.34213 93.3016 11.0725 93.4296L13.8427 92.2695C14.5417 91.4591 15.5304 90.9046 16.6385 90.7425C18.4626 90.4866 20.2612 91.3396 21.1988 92.9177L22.537 95.1697C22.7586 95.5451 22.9291 95.9545 23.0314 96.364C23.3383 96.654 23.611 96.9867 23.8412 97.362L25.205 99.6396C26.0488 101.047 26.0744 102.804 25.2647 104.229C24.5913 105.423 23.4235 106.233 22.1108 106.472L19.6986 108.298C19.6986 108.298 19.6815 108.332 19.673 108.358C18.8973 109.808 17.4057 110.729 15.7606 110.772C15.7265 110.772 15.6839 110.772 15.6498 110.772L15.6583 110.755ZM10.6718 93.5916C10.6037 93.6172 10.544 93.6428 10.4928 93.6684L10.6718 93.5916Z" fill="white"></path><path d="M18.1046 113.689C16.7238 113.689 15.4026 113.058 14.5331 111.957L12.6238 109.543C11.5413 108.17 11.3367 106.302 12.0953 104.732C12.7346 103.418 13.945 102.506 15.3514 102.241L17.6188 100.441C18.1728 99.2813 19.2042 98.3856 20.4828 98.0274C22.2557 97.5241 24.1566 98.1383 25.2988 99.5884L28.3844 103.495C29.1345 104.442 29.4754 105.653 29.3305 106.856C29.1856 108.059 28.5719 109.151 27.6172 109.901L26.1597 111.045C25.5459 111.522 24.8385 111.829 24.1054 111.949L23.7559 112.222C22.7416 113.007 21.4801 113.314 20.2697 113.126C19.835 113.365 19.3576 113.527 18.8547 113.612C18.599 113.655 18.3433 113.68 18.0876 113.68L18.1046 113.689ZM14.7633 102.702C14.7633 102.702 14.7548 102.702 14.7462 102.71H14.7633V102.702Z" fill="white"></path><path d="M21.7102 117.801C20.4572 117.801 19.2383 117.289 18.3689 116.333L16.3999 114.201C15.3259 113.041 14.9338 111.403 15.36 109.885C15.7776 108.383 16.9369 107.197 18.4285 106.745L20.568 104.783C21.0368 103.461 22.0938 102.403 23.4661 101.96C25.1624 101.414 27.012 101.9 28.2139 103.214L30.3278 105.517C31.5553 106.848 31.8706 108.776 31.1461 110.439C30.5665 111.761 29.4072 112.717 28.0349 113.041L25.9295 114.977C25.4181 116.223 24.3697 117.203 23.0399 117.604C22.6052 117.741 22.1535 117.801 21.7187 117.801H21.7102Z" fill="white"></path><path d="M26.0659 121.946C24.9493 121.946 23.8497 121.537 22.9888 120.744L19.2554 117.314C17.9171 116.086 17.4313 114.167 18.0364 112.452C18.5053 111.113 19.5537 110.089 20.8578 109.646L22.7757 107.556C23.1422 106.293 24.0543 105.236 25.2902 104.681C26.9524 103.939 28.8873 104.255 30.2255 105.491L33.8908 108.861C34.7773 109.68 35.3057 110.823 35.3569 112.026C35.408 113.237 34.9733 114.414 34.155 115.301L32.902 116.666C32.7145 116.871 32.5014 117.058 32.2883 117.221C32.0411 118.5 31.2654 119.635 30.0891 120.317L28.3418 121.332C27.6343 121.742 26.8416 121.946 26.0659 121.946Z" fill="white"></path><path d="M31.2058 125.87C30.2511 125.87 29.2964 125.572 28.4952 124.975L24.4378 121.963C22.9803 120.88 22.2984 119.037 22.716 117.272C23.0314 115.898 23.9605 114.781 25.1879 114.192L26.9098 111.846C27.174 110.482 28.052 109.287 29.322 108.648C30.8563 107.871 32.6889 108.025 34.0783 109.04L36.4394 110.78C37.8373 111.812 38.5278 113.544 38.2209 115.25C38.0419 116.265 37.5305 117.161 36.7974 117.826C36.9423 118.074 37.0617 118.338 37.1554 118.62C37.7947 120.488 37.1554 122.56 35.57 123.746L33.9334 124.966C33.1236 125.572 32.169 125.87 31.2143 125.87H31.2058Z" fill="white"></path><path d="M36.7889 128.839C35.587 128.839 34.4278 128.54 33.4305 127.977L30.0636 126.075C28.4867 125.188 27.5917 123.448 27.7792 121.648C27.9326 120.189 28.768 118.909 30.0039 118.184L31.4103 115.702C31.5297 114.354 32.2457 113.109 33.3964 112.333C34.8284 111.36 36.6866 111.292 38.1953 112.145L41.4685 114.005C41.7839 114.192 42.031 114.354 42.21 114.491C42.3379 114.576 42.4487 114.67 42.568 114.772C43.5909 115.659 46.7021 118.986 43.7017 124.377C42.0737 127.414 39.7637 128.429 38.1186 128.736C37.6754 128.813 37.2236 128.856 36.7889 128.856V128.839ZM29.5607 118.952C29.5607 118.952 29.5436 118.978 29.5351 118.995L29.5607 118.952Z" fill="white"></path><path d="M45.9605 133.053C45.4576 133.053 44.9547 132.967 44.4603 132.797L41.4855 131.756C39.7808 131.159 38.5874 129.615 38.4425 127.824C38.3317 126.476 38.8261 125.179 39.7467 124.249C39.6103 124.028 39.4909 123.797 39.3972 123.55C38.8261 122.125 39.0136 120.505 39.8916 119.242L40.7866 117.954C41.9543 116.282 44.0938 115.591 46.0202 116.257L51.0748 118.014C52.4216 118.483 53.47 119.558 53.9133 120.914C54.348 122.279 54.1264 123.763 53.3081 124.932L52.4131 126.211C51.9102 126.937 51.2283 127.465 50.4696 127.79C50.6998 129.282 50.1798 130.809 49.0462 131.841C48.1938 132.626 47.0857 133.044 45.9605 133.044V133.053Z" fill="white"></path><path d="M51.9443 134.665C51.7312 134.665 51.5095 134.665 51.2965 134.639C51.2965 134.639 51.2879 134.639 51.2794 134.639C48.7137 134.435 46.4379 133.164 45.0485 131.167C43.6676 129.18 43.267 126.646 43.9489 124.224C44.4859 122.279 45.7133 120.564 47.4181 119.447C48.8416 118.534 50.2906 118.15 51.9187 118.15C54.8594 118.227 57.3654 119.541 58.8486 121.742C60.3061 123.917 60.5874 126.655 59.6072 129.24C59.2577 130.186 58.7463 131.057 58.09 131.807C56.5557 133.633 54.3309 134.665 51.9357 134.665H51.9443ZM51.7908 128.242L51.8675 127.261C52.0039 127.244 52.2511 127.167 52.379 127.09C52.575 126.962 52.6944 126.808 52.737 126.663C52.7626 126.578 52.7455 126.288 52.5665 126.007C52.3705 125.7 52.1062 125.572 52.0039 125.555C51.7056 125.529 51.3561 125.674 51.1686 125.896C51.1515 125.913 51.1089 125.981 51.0834 126.049C51.0578 126.126 51.0578 126.425 51.2368 126.749C51.4328 127.09 51.7226 127.252 51.8335 127.278C51.842 127.278 51.859 127.278 51.8675 127.278L51.7908 128.259V128.242Z" fill="white"></path><path d="M63.6645 135.987C63.5878 135.987 63.5111 135.987 63.4344 135.987C63.119 135.97 62.7269 135.919 62.4201 135.833C62.224 135.791 61.8745 135.68 61.5592 135.552C61.508 135.535 61.4569 135.509 61.4057 135.492C60.6045 135.851 59.6924 135.978 58.7719 135.816C58.7548 135.816 58.7378 135.816 58.7207 135.808C58.5588 135.782 58.4053 135.748 58.2434 135.714C55.78 135.083 54.2542 133.709 53.453 131.389C53.3933 131.219 53.3422 131.039 53.291 130.843L52.1574 126.808C51.0322 125.495 50.7339 123.644 51.4243 122.04C52.1574 120.325 53.8536 119.217 55.7203 119.276L58.3968 119.344C58.6866 119.344 58.9594 119.387 59.2322 119.447C59.4879 119.413 59.7436 119.387 60.0163 119.396L62.4797 119.455C62.7781 119.455 63.0679 119.498 63.3492 119.558C63.6219 119.515 63.8947 119.498 64.176 119.507L66.324 119.558C67.7816 119.592 69.1283 120.325 69.9551 121.52C70.7819 122.714 70.9951 124.232 70.5177 125.606L67.9861 132.925C67.3468 134.767 65.6165 135.987 63.6816 135.987H63.6645ZM58.985 135.842C59.0446 135.842 59.0958 135.851 59.1554 135.851C59.0958 135.851 59.0446 135.851 58.985 135.842Z" fill="white"></path><path d="M66.9207 135.492C65.446 135.492 64.0566 134.776 63.1957 133.556C62.3093 132.293 62.1303 130.673 62.6928 129.257L62.3519 126.51C62.3519 126.51 62.3178 126.459 62.3007 126.425C61.4483 125.102 61.3375 123.439 62.0024 122.023C62.6673 120.607 64.014 119.626 65.5739 119.43L68.0373 119.123C68.4208 119.072 68.8129 119.072 69.188 119.123C69.5375 118.978 69.9125 118.875 70.3046 118.833L72.5379 118.551C74.1489 118.355 75.7599 119.02 76.7401 120.317C77.6522 121.52 77.9079 123.089 77.4305 124.514L78.1125 129.922C78.3767 132.02 77.1663 134.025 75.1803 134.767C74.9501 134.853 74.6433 134.938 74.379 134.989C74.2682 135.015 74.1659 135.032 74.0551 135.04C72.9129 135.202 71.9327 135.091 71.0888 134.835C70.7223 134.989 70.3217 135.1 69.9125 135.151L67.5088 135.458C67.3127 135.484 67.1167 135.492 66.9292 135.492H66.9207ZM74.6859 134.904C74.6859 134.904 74.6433 134.912 74.6177 134.921C74.6433 134.921 74.6603 134.912 74.6859 134.904ZM74.6944 134.904C74.6944 134.904 74.6944 134.904 74.6859 134.904C74.6859 134.904 74.6859 134.904 74.6944 134.904ZM77.1066 125.265V125.282C77.1066 125.282 77.1066 125.273 77.1066 125.265Z" fill="white"></path><path d="M75.3593 134.179C73.6033 134.179 72.0009 133.164 71.2422 131.577L70.3558 129.709C69.921 128.796 69.8188 127.807 70.0063 126.868C69.3073 125.179 69.3073 123.328 70.0404 121.69C70.9439 119.669 72.7851 118.244 75.2314 117.698C75.8792 117.536 76.6805 117.459 77.5755 117.476C77.8482 117.476 78.0784 117.494 78.2403 117.511C80.1582 117.707 81.7521 119.097 82.2039 120.974L82.5534 122.415C82.5704 122.484 82.5875 122.552 82.596 122.62C83.1841 123.345 83.67 124.292 83.9172 125.538C84.3178 127.534 83.8916 129.487 82.7153 131.048C81.7777 132.302 79.9366 133.846 76.5185 134.136C76.2969 134.153 76.0753 134.17 75.8366 134.17H75.7428C75.6832 134.17 75.632 134.179 75.5724 134.179H75.3848C75.3848 134.179 75.3678 134.179 75.3507 134.179H75.3593Z" fill="white"></path><path d="M80.9253 132.933C79.7405 132.933 78.5727 132.473 77.7033 131.603C76.6549 130.562 76.1946 129.086 76.4247 127.662L75.4445 125.043C75.3678 124.975 75.2996 124.898 75.2229 124.812C74.2085 123.695 73.8164 122.142 74.1659 120.675C74.5154 119.208 75.5809 118.014 76.9958 117.485L79.732 116.461C79.911 116.393 80.09 116.342 80.269 116.299C80.448 116.205 80.627 116.12 80.8145 116.052L83.5592 115.028C85.2299 114.406 87.1051 114.815 88.3666 116.077C89.3469 117.058 89.8157 118.406 89.6793 119.745L90.6425 122.33C91.7676 123.277 92.3814 124.719 92.262 126.211C92.1086 127.969 90.9664 129.487 89.3042 130.101L86.3465 131.202C86.2016 131.253 86.0567 131.304 85.9032 131.338C85.7583 131.406 85.6134 131.475 85.46 131.534L82.5022 132.643C81.9823 132.839 81.4368 132.933 80.8997 132.933H80.9253ZM76.7231 128.463C76.7231 128.463 76.7401 128.498 76.7401 128.515L76.7231 128.463Z" fill="white"></path><path d="M88.5968 129.879C87.7018 129.879 86.8068 129.615 86.0396 129.095C84.8037 128.259 84.0706 126.868 84.0451 125.401L82.7239 122.731C81.6499 121.904 80.9594 120.624 80.9168 119.251C80.8657 117.468 81.7862 115.796 83.3802 115.003L86.176 113.612C87.8808 112.768 89.935 113.066 91.3244 114.371C92.3132 115.301 92.8161 116.589 92.7564 117.894L94.0435 120.479C95.109 121.332 95.7483 122.637 95.7483 124.036C95.7483 125.768 94.768 127.346 93.2252 128.114L90.6425 129.402C90.0032 129.726 89.3043 129.879 88.6053 129.879H88.5968Z" fill="white"></path><path d="M92.066 128.182C91.1284 128.182 90.1993 127.892 89.4065 127.32C88.2558 126.493 87.5739 125.188 87.5228 123.806L86.0311 121.434C84.8378 120.667 84.0536 119.37 83.9428 117.929C83.8234 116.248 84.6332 114.636 86.0652 113.74L89.0656 111.855C89.1167 111.821 89.1764 111.787 89.2275 111.753C89.3554 111.684 89.4662 111.616 89.5855 111.556C92.1768 110.192 94.2566 110.499 95.5352 110.993C97.2655 111.667 98.6038 113.092 99.2857 115.003C99.9079 116.734 99.7545 118.577 98.9532 120.138C99.0896 120.462 99.1919 120.812 99.2601 121.17C99.5669 122.996 98.7487 124.821 97.1888 125.802L94.4953 127.491C93.7537 127.952 92.9184 128.182 92.0745 128.182H92.066Z" fill="white"></path><path d="M84.0877 35.5006C83.329 35.5006 82.5619 35.3129 81.8715 34.9291C80.3457 34.076 78.6495 33.2998 76.8339 32.6174C75.0609 31.952 73.8846 30.2545 73.8846 28.3608V25.7676C73.8761 24.2833 74.5836 22.9014 75.794 22.0398C76.9958 21.1783 78.5386 20.965 79.9366 21.4512C82.1442 22.2275 84.2411 23.1232 86.176 24.1383C87.6762 24.9231 88.6223 26.4756 88.6309 28.1646V30.9284C88.6479 32.5491 87.7955 34.0419 86.3976 34.8693C85.6816 35.2873 84.8804 35.5006 84.0791 35.5006H84.0877Z" fill="white"></path><path d="M76.6804 32.2847C76.2031 32.2847 75.7173 32.2079 75.257 32.0544C73.8591 31.5937 72.3589 31.2013 70.8075 30.8857C68.6851 30.4592 67.1678 28.5911 67.1593 26.4329V23.9591C67.1508 22.6028 67.7475 21.3148 68.7874 20.4447C69.8273 19.5746 71.1996 19.2163 72.5379 19.4637C74.4643 19.822 76.2713 20.2655 78.0443 20.82C79.9451 21.4171 81.2322 23.1658 81.2407 25.1534V27.7125C81.2492 29.1797 80.5503 30.553 79.3655 31.4146C78.5813 31.9861 77.6351 32.2847 76.689 32.2847H76.6804Z" fill="white"></path><path d="M68.7959 33.4788C68.2845 33.4788 67.773 33.3935 67.2701 33.2144L54.7657 28.7787C52.9501 28.1389 51.7397 26.4243 51.7312 24.4965C51.7312 22.5686 52.9245 20.854 54.7316 20.1972L67.2019 15.6676C68.9919 15.0193 71.0036 15.5567 72.2395 17.0154C73.0749 18.0049 73.4329 19.2845 73.2794 20.5214C74.0295 21.3317 74.4813 22.4151 74.4813 23.5923V26.066C74.4898 27.192 74.0807 28.2754 73.3391 29.1113C73.2965 30.1008 72.9385 31.0733 72.2651 31.8581C71.3871 32.9073 70.1 33.4788 68.7874 33.4788H68.7959Z" fill="white"></path><path d="M38.1356 77.3245C36.303 77.3245 34.6494 76.2241 33.9334 74.5351C33.2174 72.8376 33.5924 70.8841 34.8881 69.5705C34.9989 69.4596 35.1012 69.3572 35.212 69.2634C35.3228 69.1525 35.3824 69.0587 35.4165 69.016C35.4165 68.999 35.4165 68.9051 35.4165 68.743L35.3995 56.5448C35.3995 56.0244 35.3654 55.8879 35.3569 55.8794C35.3569 55.8709 35.3143 55.76 35.1012 55.4188C35.0841 55.3932 35.0671 55.3676 35.0415 55.342C33.9419 53.9772 33.7288 52.109 34.4789 50.5309C35.229 48.9443 36.8315 47.9463 38.5874 47.9377L49.3786 47.9036C49.7451 47.8951 50.0775 47.9036 50.4526 47.9463C54.902 48.2533 58.1496 49.7461 60.1101 52.382C61.3034 53.9942 62.5309 56.7666 61.5847 60.8611C60.4766 65.6977 56.1039 68.9734 50.7595 68.8881C50.7083 68.8881 50.6572 68.8881 50.606 68.8881C50.606 68.9563 50.606 69.016 50.6145 69.0501C50.6572 69.1013 50.7168 69.1696 50.8106 69.2719C50.9385 69.3913 51.0663 69.5108 51.1856 69.6473C52.4046 70.978 52.7285 72.9058 52.0039 74.5607C51.2794 76.2156 49.6514 77.2904 47.8443 77.2904L38.1442 77.3245H38.1271H38.1356Z" fill="white"></path><path d="M65.1733 77.8107C62.4968 77.8107 60.076 77.0259 58.1752 75.5075C55.6862 73.5114 54.3054 70.449 54.2968 66.8834L54.2627 56.4765C54.2627 56.0954 54.1605 55.7684 53.9559 55.4955C53.9047 55.4272 53.8536 55.359 53.811 55.2907C52.7114 53.9259 52.4983 52.0578 53.2484 50.4711C53.9985 48.8845 55.601 47.8865 57.3569 47.8779L66.2814 47.8524C66.9036 47.8694 67.5088 47.9718 68.0543 48.2106C68.6084 47.9718 69.205 47.8438 69.8273 47.8438L78.8029 47.8182H78.8199C80.5673 47.8182 82.1527 48.8163 82.9199 50.3858C83.687 51.9639 83.4825 53.8321 82.3914 55.2054L82.3317 55.2907C82.0249 55.7599 82.0249 55.777 82.0249 56.4082L82.059 68.5724C82.059 68.8112 82.076 68.9306 82.076 68.9733C82.0846 68.9733 82.1698 69.0927 82.3573 69.323C82.417 69.3828 82.4767 69.4425 82.5363 69.5022C83.7808 70.8244 84.1303 72.7607 83.4143 74.4327C82.6983 76.1046 81.0617 77.1879 79.2461 77.1965L71.3019 77.2221H71.2848C70.8246 77.2221 70.3898 77.1538 69.9722 77.0259C69.4778 77.1965 68.9664 77.333 68.4379 77.4439C67.3213 77.6912 66.2217 77.8107 65.1647 77.8107H65.1733ZM82.5875 69.6045C82.5875 69.6045 82.6301 69.6643 82.6557 69.6984C82.6301 69.6643 82.613 69.6387 82.5875 69.6045Z" fill="white"></path><path d="M80.1923 77.188C78.3937 77.188 76.7657 76.1302 76.0326 74.4839C75.2996 72.8376 75.6064 70.9097 76.8254 69.5705C76.9617 69.4255 77.0896 69.289 77.226 69.1695C77.3027 69.0757 77.3538 69.016 77.3879 68.9733C77.3879 68.9136 77.405 68.7942 77.405 68.6151L77.3368 56.3656C77.3368 56.2974 77.3197 56.2291 77.3197 56.1609C77.2856 55.6661 77.2856 55.6576 76.9191 55.0434C75.973 53.6956 75.8025 51.9128 76.527 50.42C77.2856 48.8505 78.8455 47.8183 80.5929 47.8098L92.0575 47.7756C92.1342 47.7756 92.2194 47.7756 92.2961 47.7756L93.336 47.8268C96.6262 47.9889 99.3879 49.3537 101.084 51.6825C102.687 53.8748 103.164 56.6386 102.422 59.4621C102.218 60.2213 101.945 60.8867 101.621 61.4838C101.621 61.4838 101.63 61.5008 101.638 61.5094C103.07 63.4799 103.582 66.0048 103.087 68.6065C102.601 71.3277 100.547 76.1046 92.3984 77.0515C92.0745 77.0942 91.6227 77.1539 91.1028 77.1539L80.2349 77.188H80.2178H80.1923ZM88.2473 65.4418C88.1109 65.6465 88.0086 65.8598 87.9745 66.0475C87.949 66.3716 88.128 66.8067 88.4007 67.182V67.1649L88.2473 65.4333V65.4418ZM88.4689 57.9864L87.9916 58.0375C88.0257 58.319 88.1365 58.6347 88.3155 58.9332L88.4945 58.1058L88.4689 57.9949V57.9864ZM88.0001 57.5769H88.3837L88.2473 56.9201C88.128 57.1333 88.0342 57.3551 88.0001 57.5769Z" fill="white"></path><path d="M98.8765 77.1282C97.0951 77.1282 95.4755 76.0875 94.7339 74.4667C93.9924 72.8375 94.2651 70.9267 95.4414 69.5789C95.5522 69.4509 95.6545 69.34 95.7568 69.2292C95.8335 69.1353 95.8847 69.0585 95.9188 69.0159C95.9188 68.9306 95.9358 68.7856 95.9358 68.5467L95.8761 56.3485C95.8761 55.7087 95.8761 55.666 95.6204 55.2822C95.5949 55.2395 95.5608 55.2054 95.5352 55.1627L95.5693 55.2054C94.4527 53.8491 94.2055 51.9724 94.947 50.3773C95.6886 48.7736 97.2996 47.7414 99.0641 47.7414L108.023 47.7158H108.04C109.898 47.7158 111.577 48.8503 112.267 50.582C112.915 52.2027 112.574 54.0453 111.424 55.3333C111.236 55.5978 111.202 55.6831 111.202 55.6831C111.202 55.6831 111.176 55.7513 111.159 55.9731C111.159 56.0925 111.151 56.212 111.142 56.3399L111.159 63.7783C112.787 63.6077 113.145 63.3518 113.401 63.1641C114.987 62.0125 117.143 62.004 118.737 63.1471C120.331 64.2987 121.013 66.3374 120.425 68.214L118.643 73.8867C118.047 75.7804 116.299 77.077 114.313 77.077L98.9021 77.1282H98.8851H98.8765Z" fill="white"></path><path d="M116.402 77.077C114.705 77.077 113.145 76.1302 112.361 74.6203C111.577 73.1019 111.696 71.2764 112.685 69.886C112.762 69.7751 112.881 69.6045 113.043 69.4083C113.205 69.1524 113.205 69.05 113.205 68.4956V56.2973C113.197 56.0499 113.188 55.9049 113.18 55.8281C113.145 55.7769 113.086 55.7002 112.983 55.5722C111.645 54.3183 111.185 52.3819 111.833 50.6588C112.498 48.876 114.185 47.6988 116.086 47.6902L125.599 47.6561H125.616C127.448 47.6561 129.111 48.7565 129.818 50.4541C130.526 52.1516 130.142 54.1135 128.846 55.4272L128.71 55.5637C128.548 55.7514 128.48 55.8622 128.454 55.9049C128.454 55.922 128.454 56.0329 128.454 56.2461L128.488 68.4359C128.488 68.9562 128.522 69.1439 128.522 69.1865C128.522 69.1865 128.582 69.2974 128.744 69.5277C128.821 69.6386 128.889 69.741 128.957 69.8604L129.008 69.9287C129.946 71.3276 130.04 73.1275 129.255 74.6118C128.471 76.096 126.928 77.0344 125.241 77.0344L116.419 77.06H116.402V77.077ZM119.888 75.4136C119.888 75.4136 119.811 75.4904 119.777 75.5245C119.811 75.4904 119.854 75.4563 119.888 75.4136ZM129.059 70.0737C129.059 70.0737 129.085 70.1248 129.102 70.159C129.085 70.1334 129.076 70.1078 129.059 70.0737ZM113.009 55.6063C113.009 55.6063 113.026 55.6234 113.043 55.6319C113.035 55.6234 113.026 55.6149 113.009 55.6063Z" fill="white"></path><path d="M137.737 77.6486C129.247 77.6486 125.121 73.3408 123.152 69.596C121.661 66.8237 121.056 63.5225 121.473 60.3321C122.684 51.1877 129.92 46.1804 140.345 47.2467C140.891 47.3064 141.376 47.3747 141.879 47.4429L143.993 47.7841C146.158 48.168 147.744 50.0532 147.752 52.254V56.4509C147.769 58.1228 146.857 59.6668 145.391 60.4686C143.925 61.2705 142.135 61.2022 140.729 60.2895L140.055 59.8459C139.961 59.7947 139.859 59.7436 139.765 59.6924C139.689 59.6497 139.612 59.6071 139.535 59.573C138.419 59.0611 137.677 59.0782 137.379 59.2573C137.055 59.445 136.654 60.1359 136.586 61.4496C136.543 62.2003 136.595 63.5566 137.447 64.2731C138.188 64.8958 139.535 65.0323 141.138 64.657C141.947 64.4523 142.365 64.1964 142.783 63.8296C144.419 62.3965 146.832 62.3112 148.562 63.6334C150.284 64.9556 150.838 67.3184 149.875 69.2633L147.317 74.4497C146.729 75.644 145.647 76.5226 144.351 76.8553C142.681 77.2733 141.027 77.5292 139.416 77.5889C138.836 77.623 138.282 77.6401 137.737 77.6401V77.6486Z" fill="white"></path><path d="M38.4851 101.67C36.6696 101.67 35.0244 100.595 34.3084 98.9231C33.5839 97.2511 33.9249 95.3148 35.1694 93.984L38.4851 97.1061L35.229 93.9158C35.2802 93.8646 35.3228 93.8134 35.3739 93.7623C35.4506 93.6684 35.4933 93.6002 35.5274 93.5575C35.5274 93.4722 35.5444 93.3358 35.5444 93.0969L35.4762 80.8901C35.4762 80.4295 35.3796 80.0598 35.1864 79.7812L34.9989 79.5338C33.9931 78.1519 33.8482 76.3179 34.6153 74.7909C35.391 73.264 36.9508 72.3001 38.6641 72.2916L47.6142 72.266H47.6312C49.4127 72.266 51.0322 73.3067 51.7738 74.9274C52.5154 76.5482 52.2426 78.459 51.0748 79.8153C50.8191 80.1821 50.785 80.2247 50.7595 80.5233C50.7595 80.6342 50.7509 80.7366 50.7424 80.8474L50.7595 88.3285C52.396 88.1579 52.7455 87.902 52.9757 87.7314C54.5611 86.5713 56.7176 86.5627 58.3116 87.7058C59.9055 88.8488 60.596 90.8961 60.0078 92.7728L58.2434 98.4283C57.6467 100.331 55.8993 101.619 53.9047 101.627L38.4851 101.678H38.4681L38.4851 101.67Z" fill="white"></path><path d="M55.4731 101.619C53.7513 101.619 52.1829 100.655 51.4073 99.1192C50.6316 97.5838 50.785 95.7327 51.8164 94.3508C51.9016 94.2399 51.9784 94.1375 52.0551 94.0437C52.2767 93.711 52.2767 93.6513 52.2767 93.0627V80.8644C52.2682 80.6085 52.2596 80.4635 52.2511 80.3782C52.2255 80.3356 52.1744 80.2673 52.1062 80.182C52.0636 80.1394 52.0295 80.0967 51.9869 80.0541C50.7083 78.7404 50.3077 76.7699 51.0152 75.0809C51.7226 73.3919 53.3422 72.2574 55.1748 72.2574L64.6874 72.2318C66.4604 72.2745 68.114 73.2725 68.847 74.9103C69.5886 76.5481 69.2988 78.4589 68.114 79.8067C67.9947 79.9432 67.8838 80.0541 67.7645 80.182C67.6196 80.3526 67.5599 80.4465 67.5344 80.4891C67.5344 80.5062 67.5344 80.6171 67.5344 80.8389L67.5685 93.0286C67.5685 93.5319 67.594 93.7196 67.6026 93.7707C67.6026 93.7707 67.6622 93.8816 67.8242 94.1119C67.9094 94.2399 67.9946 94.3764 68.0714 94.5129C68.9493 95.8948 69.0601 97.6947 68.2845 99.1533C67.4917 100.638 65.9915 101.619 64.3123 101.619L55.4987 101.644H55.4817L55.4731 101.619ZM59.1213 99.7675C59.1213 99.7675 59.0958 99.8016 59.0787 99.8187C59.0958 99.8016 59.1043 99.7846 59.1213 99.7675ZM68.1396 94.6408L68.1651 94.692C68.1651 94.692 68.1481 94.6579 68.1396 94.6408Z" fill="white"></path><path d="M65.2244 101.584C63.3662 101.584 61.687 100.45 60.9966 98.7269C60.2976 96.9952 60.7323 95.0162 62.0876 93.7281L62.2411 93.5831C62.3263 93.4978 62.3775 93.421 62.4115 93.3784C62.4115 93.3187 62.4286 93.2078 62.4201 93.0286L62.3519 80.6939C62.3434 80.6171 62.3519 80.6427 62.3348 80.5574C62.3007 80.0882 62.3007 80.0626 61.9683 79.4996L61.9427 79.457C60.9284 78.0751 60.7835 76.2411 61.5592 74.7142C62.3348 73.1872 63.8947 72.2148 65.608 72.2148L77.0725 72.1807C77.1578 72.1807 77.2345 72.1807 77.3112 72.1807L78.3596 72.2318C81.6498 72.3939 84.403 73.7588 86.1078 76.079C87.7188 78.2713 88.1962 81.0351 87.4546 83.8586C87.25 84.6093 86.9687 85.2832 86.6448 85.8803C86.6448 85.8803 86.6533 85.8973 86.6619 85.8973C88.0939 87.8678 88.6138 90.3928 88.1194 93.0116C87.6251 95.7413 85.5623 100.518 77.3624 101.465C77.0299 101.508 76.5782 101.55 76.1349 101.55H76.1264L65.2585 101.584H65.2415H65.2244ZM73.0067 90.4354C73.0067 90.8108 73.1857 91.2629 73.4584 91.6297L73.4925 91.4249L73.3135 89.7871C73.1601 90.0004 73.0493 90.2222 73.0067 90.4354ZM73.0067 82.4085C73.0408 82.707 73.1601 83.0312 73.3391 83.3297L73.5011 82.5961L73.467 82.3999H73.0067V82.4085ZM73.2624 81.3422C73.1431 81.5554 73.0578 81.7772 73.0152 81.999H73.3902L73.2624 81.3422ZM62.0876 79.6446C62.0876 79.6446 62.1132 79.6788 62.1217 79.6873L62.0876 79.6446Z" fill="white"></path><path d="M83.5848 101.533C81.7351 101.533 80.0644 100.407 79.3655 98.6928C78.6665 96.9697 79.0842 94.9906 80.4224 93.7026L80.6526 93.4893C80.7804 93.3614 80.8657 93.259 80.9083 93.1993C80.9083 93.1481 80.9083 93.0713 80.9083 92.9775L80.8742 80.7878C80.8742 80.2674 80.8401 80.0968 80.8401 80.0627C80.8401 80.0627 80.7804 79.9433 80.5758 79.6532C80.5588 79.6362 80.5503 79.6106 80.5332 79.5935L80.4054 79.4314C79.391 78.0495 79.2376 76.2155 80.0047 74.6801C80.7719 73.1446 82.3403 72.1807 84.0621 72.1722L94.0094 72.1381C94.5123 72.1381 95.0408 72.1381 95.5267 72.1551C99.3965 72.2916 102.346 73.4858 104.229 75.7208C105.355 77.0515 106.599 79.3717 106.147 82.8606C105.892 84.7458 105.184 86.358 104.05 87.6461C104.596 88.5418 105.227 89.4716 105.926 90.4099C106.556 91.2288 107.273 92.0477 107.997 92.7813L108.807 93.5576C110.188 94.8286 110.656 96.8161 109.983 98.5648C109.31 100.314 107.622 101.474 105.747 101.482L99.8141 101.499C98.3225 101.55 97.1291 101.209 96.1148 100.612C95.3477 101.184 94.4015 101.516 93.4042 101.516L83.5933 101.55H83.5762L83.5848 101.533Z" fill="white"></path><path d="M102.081 101.474C100.266 101.474 98.6293 100.399 97.9048 98.7269C97.1803 97.0549 97.5212 95.1186 98.7657 93.7878C98.9106 93.6343 99.064 93.4808 99.2175 93.3357C99.925 92.5851 100.172 92.2012 100.564 91.1946L105.235 79.039C105.329 78.8002 105.38 78.6381 105.414 78.5357C105.414 78.5272 105.406 78.5101 105.397 78.4845C104.792 77.1453 104.877 75.5842 105.627 74.3047C106.446 72.9143 107.929 72.0612 109.54 72.0612L116.325 72.0442H116.342C118.26 72.0442 119.973 73.247 120.629 75.0554L126.485 91.2799C126.869 92.3633 127.09 92.6874 127.713 93.3357C127.747 93.3699 127.772 93.3954 127.806 93.4296C127.892 93.5234 127.968 93.6172 128.054 93.7111C129.273 95.0077 129.622 96.9014 128.949 98.5563C128.25 100.262 126.596 101.38 124.746 101.388L114.671 101.422H114.654C113.785 101.422 112.949 101.175 112.233 100.731C111.526 101.184 110.691 101.439 109.804 101.439L102.107 101.465H102.09L102.081 101.474ZM105.312 100.109C105.312 100.109 105.261 100.151 105.244 100.168C105.269 100.151 105.295 100.134 105.312 100.109Z" fill="white"></path><path d="M122.811 101.405C120.979 101.405 119.325 100.305 118.609 98.6075C117.902 96.91 118.277 94.948 119.572 93.6429C119.675 93.5405 119.768 93.4467 119.871 93.3614C120.007 93.2249 120.092 93.1225 120.143 93.0628C120.143 93.0116 120.143 92.9349 120.143 92.841L120.109 80.6513C120.109 80.1139 120.075 79.9518 120.067 79.9262C120.067 79.9262 120.109 79.9603 119.794 79.4997L119.632 79.2779C118.618 77.896 118.473 76.062 119.248 74.5351C120.024 73.0082 121.584 72.0357 123.297 72.0357L133.236 72.0016C133.73 72.0016 134.259 72.0016 134.762 72.0186C138.64 72.1551 141.589 73.3579 143.473 75.5928C144.598 76.9236 145.843 79.2523 145.366 82.7412C145.127 84.6093 144.428 86.2215 143.286 87.5096C143.78 88.3285 144.419 89.2668 145.169 90.2819C145.783 91.0838 146.499 91.9027 147.232 92.6448L148.016 93.387C149.423 94.6494 149.9 96.637 149.227 98.4028C148.553 100.169 146.866 101.329 144.982 101.337L139.041 101.354C137.558 101.405 136.356 101.064 135.342 100.467C134.574 101.039 133.628 101.371 132.631 101.371L122.829 101.405H122.811Z" fill="white"></path><path d="M146.61 101.337C144.735 101.337 143.047 100.186 142.365 98.4369C141.692 96.7137 142.126 94.7603 143.456 93.4808L143.567 93.3614C143.703 93.2163 143.772 93.1225 143.797 93.0884C143.797 93.0799 143.806 92.9519 143.814 92.6875V90.3502L139.808 82.6815C139.28 81.6578 138.947 81.1972 138.24 80.4892L137.686 79.9859C136.245 78.749 135.717 76.7359 136.381 74.953C137.046 73.1702 138.743 71.976 140.643 71.9674L149.355 71.9418H149.372C150.335 71.9418 151.255 72.2489 152.006 72.7863C152.764 72.2404 153.685 71.9333 154.648 71.9333L161.535 71.9163H161.552C163.163 71.9163 164.655 72.7693 165.473 74.1512C166.292 75.5416 166.317 77.2647 165.541 78.6808L159.097 90.3331V92.7301C159.106 92.969 159.123 93.1054 159.132 93.1566C159.149 93.1566 159.2 93.2419 159.311 93.3699L159.481 93.549C160.768 94.8541 161.152 96.8076 160.444 98.5051C159.737 100.203 158.092 101.303 156.25 101.312L146.627 101.346H146.61V101.337Z" fill="white"></path><path d="M121.661 54.3524H73.5948V72.9484H121.661V54.3524Z" fill="white"></path><path d="M105.73 50.855C99.0044 36.1745 85.1531 25.4178 68.2418 23.6008C55.9505 22.2701 43.8296 25.8614 34.0954 33.7092C24.0628 41.8044 17.7722 53.3885 16.3743 66.346C14.9764 79.312 18.6672 91.9795 26.7478 102.02C34.5812 111.753 45.6707 117.852 57.9536 119.165C70.2449 120.488 82.3744 116.896 92.1086 109.049C95.8932 105.995 99.1408 102.446 101.809 98.5137H98.8339C96.4984 101.713 93.7281 104.621 90.5743 107.163C81.36 114.593 69.8614 118.005 58.2178 116.751C46.5743 115.497 36.0729 109.722 28.6401 100.501C20.9601 90.9644 17.4653 78.9282 18.7951 66.6105C20.1163 54.3013 26.0915 43.2802 35.6211 35.6029C44.8354 28.1645 56.334 24.761 67.9776 26.0149C83.5933 27.6954 96.4557 37.4881 102.994 50.8636L105.721 50.8465L105.73 50.855Z" fill="#B0876F"></path><path d="M38.1868 85.5221C29.5266 82.5365 22.6137 78.4932 19.0508 74.066C16.9965 71.5154 16.093 68.9222 16.3743 66.3461L18.7951 66.6105C18.5905 68.5213 19.315 70.5088 20.9431 72.539C24.0969 76.463 30.2767 80.0627 38.1527 82.8777L38.1868 85.5221Z" fill="#B0876F"></path><path d="M38.1527 59.556C33.1663 57.2358 29.2197 54.489 26.8416 51.5546C25.0175 49.277 24.2077 46.9909 24.4634 44.7474L26.8757 45.0119C26.7052 46.5814 27.3359 48.2704 28.7424 50.0277C30.7029 52.4673 33.9845 54.7961 38.1527 56.8434V59.556Z" fill="#B0876F"></path><path d="M23.8241 97.1745C30.0806 103.581 42.892 108.494 59.0191 110.226C76.1179 112.068 91.9637 108.665 98.8595 102.344L98.5782 99.0255C93.8816 105.116 78.317 109.859 59.2833 107.812C41.5793 105.892 27.7707 99.9894 23.4747 92.8496L23.8156 97.1745H23.8241Z" fill="#B0876F"></path><path d="M66.5286 50.8892L69.3244 24.9316L66.9121 24.6757L64.0822 50.8892H66.5286Z" fill="#B0876F"></path><path d="M58.9594 98.5477L56.8881 117.835L59.3003 118.091L61.4143 98.5477H58.9594Z" fill="#B0876F"></path><path d="M85.4259 50.8892C83.0563 36.5669 76.6719 26.5609 68.0288 25.6311C58.4991 24.599 49.3019 34.9376 44.1109 50.9319H46.6936C51.5436 36.601 59.6583 27.1666 67.7816 28.0452C75.1547 28.847 80.7293 37.9488 82.954 50.8892H85.4344H85.4259ZM42.2612 98.5137C45.2957 109.219 50.9555 116.351 58.1922 117.135C61.8063 117.528 65.429 116.282 68.9493 113.45C73.0322 110.158 76.6464 104.971 79.5189 98.5478H76.8083C74.1744 104.169 70.9695 108.707 67.4236 111.556C64.4317 113.971 61.4143 115.037 58.4565 114.713C52.4131 114.047 47.5886 107.837 44.8183 98.5052H42.2697L42.2612 98.5137Z" fill="#B0876F"></path><path d="M98.5782 50.8977C96.8649 46.4194 94.5123 42.2736 91.5972 38.6397C85.4344 30.9881 77.0725 26.2453 68.0628 25.2728C46.83 22.9867 27.3274 41.8045 24.5998 67.2332C24.3697 69.2293 24.2674 71.2168 24.2674 73.1959C24.2674 84.78 27.9156 95.7925 34.6068 104.118C40.778 111.77 49.1314 116.521 58.1411 117.485C72.1884 119.003 85.4685 111.284 93.6429 98.5478H90.7277C82.9966 109.748 71.0291 116.427 58.4053 115.071C50.0264 114.167 42.2527 109.74 36.4991 102.6C29.0578 93.3444 25.5971 80.566 27.0035 67.4976C29.5948 43.3996 47.8954 25.5458 67.7986 27.6954C76.169 28.5911 83.9513 33.0268 89.6963 40.1752C92.2705 43.3655 94.3674 46.9909 95.9614 50.8892H98.5782V50.8977Z" fill="#B0876F"></path><path d="M44.6052 27.9087C43.1562 29.0688 42.3549 30.3569 42.2015 31.7473C41.494 38.3241 54.0752 43.2631 66.2814 44.5768C78.479 45.8905 91.8358 43.7408 92.5348 37.1725C93.1911 31.0649 80.2605 24.9657 68.2504 23.5923C58.9935 22.5261 49.0547 24.343 44.6052 27.9001V27.9087ZM44.6052 32.2506C44.6052 32.1738 44.6052 32.0885 44.6138 32.0203C44.7161 31.116 45.5002 30.3227 46.131 29.8109C50.052 26.6632 59.4367 25.0425 67.9776 26.0149C79.8343 27.3713 90.4976 33.3083 90.1055 36.9081C89.7219 40.5505 79.9366 43.6044 66.5456 42.1627C53.4189 40.7467 44.6052 35.8674 44.6052 32.2506Z" fill="#B0876F"></path><path d="M61.0818 43.7835C61.0818 43.7835 61.2267 44.8328 63.0338 44.8925C64.8323 44.9351 64.9772 43.7835 64.9772 43.7835H86.4743V14.9171H40.0279V43.7835H61.0818Z" fill="white" stroke="#00529B" stroke-width="0.51"></path><path d="M85.3833 15.9321H63.9373V42.8025H85.3833V15.9321Z" fill="white"></path><path d="M86.1675 43.5958H63.1446V15.1473H86.1675V43.5958ZM64.7215 42.0177H84.5906V16.7254H64.7215V42.0177Z" fill="white"></path><path d="M62.3519 15.8127H40.9059V42.6746H62.3519V15.8127Z" fill="white"></path><path d="M63.1446 43.4593H40.1132V15.0194H63.1446V43.4593ZM41.6986 41.8812H61.5677V16.5975H41.6986V41.8812Z" fill="white"></path><path d="M85.3833 15.9321H63.9373V42.8025H85.3833V15.9321Z" fill="#00529B"></path><path d="M77.9675 36.2257V9.35535L63.8776 15.8128V42.6831L77.9675 36.2257Z" fill="white"></path><path d="M63.0934 43.9114V15.3009L78.7517 8.12695V36.7375L63.0934 43.92V43.9114ZM64.6704 16.316V41.4547L77.1748 35.7224V10.5922L64.6704 16.316Z" fill="white"></path><path d="M77.9675 36.2257V9.35535L63.8776 15.8128V42.6831L77.9675 36.2257Z" fill="#00529B"></path><path d="M71.2508 32.5576V5.68726L63.2298 15.7018V42.5721L71.2508 32.5576Z" fill="white"></path><path d="M62.4371 44.8156V15.4203L72.0435 3.4353V32.8306L62.4371 44.8156ZM64.014 15.9748V40.3202L70.458 32.2761V7.93075L64.014 15.9748Z" fill="white"></path><path d="M71.2508 32.5577V5.68738L63.2298 15.7019V42.5723L71.2508 32.5577Z" fill="#00529B"></path><path d="M62.3519 15.8127H40.9059V42.6746H62.3519V15.8127Z" fill="#00529B"></path><path d="M48.2194 36.0892V9.22742L62.3007 15.6763V42.5466L48.2194 36.0892Z" fill="white"></path><path d="M63.0934 43.7835L47.4266 36.601V7.99902L63.0934 15.173V43.7835ZM49.0035 35.5859L61.508 41.3268V16.1966L49.0035 10.4728V35.5944V35.5859Z" fill="white"></path><path d="M48.2194 36.0892V9.22742L62.3007 15.6763V42.5466L48.2194 36.0892Z" fill="#00529B"></path><path d="M54.9276 32.4297V5.55078L62.9656 15.5653V42.4271L54.9276 32.4297Z" fill="white"></path><path d="M63.7498 44.6706L54.1349 32.7027V3.30737L63.7498 15.2924V44.6706ZM55.7203 32.1482L62.1729 40.1837V15.8469L55.7203 7.80282V32.1482Z" fill="white"></path><path d="M54.9276 32.4297V5.55078L62.9656 15.5653V42.4271L54.9276 32.4297Z" fill="#00529B"></path><path d="M20.3975 41.4121L19.1531 43.792L14.9508 42.8537L17.0306 44.8242C17.4739 45.2507 17.7211 45.336 18.2751 45.2507C18.3263 45.2507 18.3603 45.2507 18.403 45.2336L17.2608 47.4174L12.9818 46.4449L15.1213 48.4922C15.556 48.9017 15.8288 48.9955 16.3487 48.9528C16.3913 48.9528 16.434 48.9187 16.4936 48.9187L15.4878 50.8295L10.0326 45.3445L10.0752 45.2848L10.1093 45.2336C10.1689 45.1569 10.2286 45.0886 10.3053 45.0119C10.9105 44.4403 11.3452 44.2868 12.0527 44.3465L12.5897 44.4403L15.1383 44.8754L11.9163 41.6936C11.9504 41.6424 11.9845 41.5912 12.0271 41.5486C12.709 40.7553 13.1352 40.6017 14.0132 40.7041C14.0643 40.7041 14.124 40.7211 14.1751 40.7297L18.7354 41.5656C19.298 41.668 19.6474 41.6509 20.2526 41.4803C20.3038 41.4633 20.3464 41.4377 20.3975 41.4206V41.4121Z" fill="#00529B"></path><path d="M9.06936 48.5178C9.06936 48.5178 9.10346 48.6117 9.13755 48.6458C9.42736 49.1149 9.67456 49.3197 10.203 49.4903L14.1837 50.8722C14.7207 51.0598 15.0105 51.0769 15.5219 50.9404C15.5645 50.9404 15.6071 50.9148 15.6498 50.8892L14.0302 55.5979L12.2828 54.9923H12.2999L12.4363 54.907C12.7687 54.7364 12.9051 54.5743 13.0244 54.3013L13.0756 54.1563L13.1352 54.0113L13.5444 52.8085L12.3169 52.382L11.6862 54.216L10.0326 53.6445L10.1178 53.5933L10.1434 53.5763L10.365 53.4483H10.382C10.5269 53.346 10.6207 53.218 10.6974 52.9962L11.0554 51.947L9.56375 51.4352L9.5126 51.5205L9.43589 51.674C8.93298 52.8341 8.83922 53.7213 9.0097 54.5061L7.39017 53.3033L9.04379 48.5178H9.06936Z" fill="#00529B"></path><path d="M9.07789 55.069C8.57498 55.3164 8.19141 55.6747 7.85898 56.2291C7.09183 57.4575 7.39869 58.1655 7.88455 58.2593C8.14879 58.302 8.31074 58.2082 8.66874 57.7731L8.80512 57.5769L8.96708 57.3722C9.06936 57.2528 9.19722 57.1078 9.41032 56.903C9.47851 56.8263 9.55522 56.7665 9.62341 56.7068C10.2116 56.2121 10.6207 56.0329 11.1748 56.0073C12.7943 55.9391 13.783 57.1675 13.2801 59.155C13.1864 59.5645 13.0159 59.9654 12.7687 60.4175C12.7517 60.4772 12.709 60.5284 12.6749 60.5881L11.2429 60.2469C11.5072 60.0592 11.7203 59.8374 11.8908 59.5389C12.0868 59.2233 12.2061 58.882 12.2402 58.6432C12.2658 58.4641 12.2573 58.3617 12.2232 58.2593C12.1465 57.9608 11.8481 57.8328 11.5242 57.9864C11.2088 58.1314 11.0213 58.2849 10.6207 58.8138C9.63194 60.1445 9.05232 60.3919 8.00388 60.1104C6.45255 59.6668 5.72802 58.1399 6.69974 55.7258C6.75088 55.5979 6.7935 55.4699 6.86169 55.342L6.9384 55.1799L7.01512 55.0264L9.07789 55.0775V55.069Z" fill="#00529B"></path><path d="M11.2088 60.6904L12.6494 61.3217L11.9249 66.619L10.4843 65.9963L10.5525 65.8512C10.723 65.4077 10.7656 65.2371 10.8594 64.6997L10.8849 64.5376L6.6145 63.949C6.09455 63.8722 5.74507 63.949 5.29331 64.222C5.25069 64.2476 5.20807 64.2731 5.17397 64.3073L5.60016 61.1767C5.63426 61.2278 5.66836 61.262 5.69393 61.2961C6.06045 61.7397 6.33321 61.8761 6.89579 61.9444L11.1577 62.533L11.1748 62.3112L11.2259 61.697V61.6544C11.2259 61.5179 11.2429 61.3473 11.2174 60.9293V60.6904H11.2088Z" fill="#00529B"></path><path d="M6.10307 71.8565L7.94422 71.8224L7.96127 71.9163V72.0186C7.96127 72.0186 7.97831 72.1039 7.97831 72.138C7.99536 72.974 7.63736 73.3323 6.99807 73.2896C6.4355 73.2555 6.16274 73.0422 6.06045 72.5219C6.03488 72.411 6.02636 72.2831 6.06045 72.0442L6.08602 71.8736V71.8565H6.10307ZM4.82449 72.8546C4.82449 72.9399 4.84154 73.0167 4.85007 73.0934C5.04611 74.4924 5.65131 75.1578 6.54631 75.2942C7.55212 75.4648 8.32779 74.9189 8.48122 73.6394C8.49827 73.5285 8.49827 73.4346 8.49827 73.3237C8.49827 73.4005 8.52384 73.4858 8.54941 73.5455C8.7966 74.4839 9.1887 74.8848 9.79389 75.0383C10.8849 75.2857 11.7799 74.6374 11.8226 73.3835V73.0422V72.8972L11.7458 69.2804C11.7458 69.2804 11.6691 69.3316 11.635 69.3486C11.2003 69.6131 10.9702 69.6813 10.544 69.724C10.4843 69.724 10.4161 69.724 10.3309 69.741L6.12864 69.8349C5.57459 69.8519 5.26773 69.741 4.83302 69.3913C4.79892 69.3572 4.76483 69.3231 4.73073 69.2975L4.80745 72.8631L4.82449 72.8546ZM9.08641 71.7883L10.5866 71.7542L10.6037 71.848L10.6207 71.9589C10.6548 72.1892 10.6633 72.3428 10.6463 72.4707C10.5866 73.0252 10.4247 73.1958 10.024 73.2384H9.88765C9.3336 73.2214 9.05232 72.9058 9.06937 72.138C9.05232 72.0271 9.06937 71.9162 9.08641 71.7883Z" fill="#00529B"></path><path d="M4.98645 76.5227C4.98645 76.5227 5.06316 76.5739 5.09726 76.608C5.58312 76.8895 5.8644 76.9492 6.4355 76.8724L10.6207 76.2924C11.1662 76.2156 11.456 76.0876 11.8396 75.7635C11.8737 75.7379 11.9078 75.6953 11.9419 75.6611L12.334 78.5785C12.334 78.5785 12.2573 78.5273 12.2061 78.5102C11.797 78.314 11.5328 78.2458 11.081 78.2799C11.0213 78.2799 10.9531 78.2799 10.8849 78.2799L6.75088 78.8515C6.76793 79.1927 6.80203 79.4998 6.85317 79.7983C7.06626 80.984 7.28788 81.4617 7.67998 81.8626L5.65983 81.547L4.97792 76.5227H4.98645Z" fill="#00529B"></path><path d="M9.83651 83.4066C11.2941 82.8777 12.2914 83.2274 12.6068 84.1146C12.8369 84.7373 12.5471 85.4709 11.6691 86.1192C11.3197 86.3751 10.8508 86.5969 10.2627 86.7504C8.81365 87.1599 8.05503 86.8357 7.79931 85.9145C7.62031 85.3173 7.87603 84.6946 8.69432 84.0207C8.98413 83.7734 9.32508 83.5942 9.83651 83.4066ZM6.6486 86.4945C7.09184 87.5864 7.99536 88.3456 9.12903 88.6271C9.56375 88.738 10.0496 88.7721 10.5099 88.7209C13.1182 88.4565 14.6184 86.1107 13.3739 83.4066C13.067 82.7327 12.6579 82.2806 12.0357 81.9138C11.2174 81.4361 10.2798 81.291 9.34213 81.4702C7.01512 81.9052 5.69393 84.089 6.6486 86.4945Z" fill="#00529B"></path><path d="M12.0868 90.9644C13.4677 90.2393 14.4905 90.4611 14.9338 91.28C15.2406 91.8686 15.0616 92.6364 14.2774 93.3955C13.9791 93.7026 13.5444 93.9756 12.9733 94.223C11.5924 94.8116 10.8082 94.5983 10.4247 93.7282C10.1689 93.1567 10.3224 92.5084 11.0469 91.7321C11.3026 91.4506 11.618 91.2289 12.0868 90.9644ZM9.35918 94.4618C9.9388 95.4855 10.9361 96.1082 12.1039 96.2276C12.5641 96.2788 13.0244 96.2447 13.4932 96.1338C16.0333 95.5111 17.2011 92.9776 15.5901 90.4611C15.1895 89.8555 14.7292 89.4631 14.0558 89.1816C13.1864 88.8319 12.2402 88.8063 11.3367 89.1133C9.09494 89.864 8.08913 92.2098 9.3677 94.4618H9.35918Z" fill="#00529B"></path><path d="M10.8594 97.8397C10.9105 97.8397 10.9531 97.8397 10.9958 97.8568C11.4134 97.9421 11.6606 97.9336 12.0101 97.8568C12.1891 97.8142 12.3169 97.7715 12.4192 97.7374L16.3572 96.1081C16.8772 95.8948 17.1073 95.6986 17.3545 95.2721C17.3716 95.2295 17.4057 95.2039 17.4142 95.1527L18.7439 97.4047L16.1186 100.433L20.0481 99.614L21.4034 101.892C21.3522 101.892 21.3096 101.892 21.2585 101.892C20.7555 101.892 20.4743 101.985 20.014 102.327L16.63 104.869C16.1868 105.201 15.9907 105.44 15.7861 105.969C15.7691 106.012 15.7606 106.063 15.735 106.097L14.0473 103.248C14.0984 103.274 14.1496 103.282 14.2092 103.299C14.7803 103.461 15.1128 103.393 15.5645 103.069L17.8404 101.431L13.0244 102.395L13.0074 102.327L12.9733 102.13C12.888 101.542 12.9562 101.175 13.1779 100.783C13.2205 100.706 13.2716 100.638 13.3228 100.569L13.391 100.484L13.6211 100.211L15.7094 97.7544L13.1097 98.9146C12.5897 99.1363 12.3596 99.3581 12.155 99.8358C12.1379 99.8785 12.1294 99.9126 12.1124 99.9723L10.8594 97.8653V97.8397Z" fill="#00529B"></path><path d="M16.2805 106.609C16.3317 106.609 16.3743 106.609 16.4254 106.609C16.971 106.609 17.2608 106.507 17.6955 106.148L21.0113 103.538C21.4545 103.197 21.6335 102.932 21.7955 102.446C21.8125 102.395 21.8296 102.361 21.8296 102.301L24.8981 106.225L23.4406 107.36C23.5514 106.95 23.4661 106.575 23.0144 106.012L22.2984 105.099L21.2585 105.918L22.4518 107.436L21.0539 108.52L21.0709 108.477L21.0965 108.383C21.1391 108.153 21.1306 108.042 21.0283 107.812C20.9686 107.675 20.9431 107.624 20.9175 107.598L20.2271 106.711L18.94 107.726C18.5138 108.059 18.3348 108.341 18.2069 108.861C18.1984 108.912 18.1984 108.963 18.1813 109.006L16.2805 106.583V106.609Z" fill="#00529B"></path><path d="M24.9408 106.225L27.0461 108.528H26.9012C26.3387 108.562 26.0318 108.69 25.6312 109.049L22.5115 111.889C22.0853 112.29 21.9318 112.52 21.8125 113.015C21.7955 113.058 21.7869 113.1 21.7784 113.143L19.8179 111.011C19.8691 110.994 19.9117 110.994 19.9543 110.994C20.4572 110.908 20.7385 110.772 21.1476 110.405L24.2674 107.564C24.6936 107.18 24.8385 106.925 24.9322 106.37C24.9322 106.319 24.9322 106.276 24.9408 106.225Z" fill="#00529B"></path><path d="M22.3921 113.868C22.4433 113.868 22.4859 113.868 22.537 113.851C23.0826 113.774 23.3724 113.629 23.7474 113.22L26.6114 110.123C26.995 109.705 27.1229 109.432 27.2081 108.921C27.2081 108.869 27.2251 108.818 27.2251 108.776L30.8819 112.162L29.6203 113.518V113.493L29.6033 113.331C29.5692 112.947 29.4925 112.768 29.2964 112.546L29.1771 112.444L29.0663 112.333L28.1201 111.471L27.2507 112.427L28.6657 113.74L27.4723 115.037L27.4553 114.926V114.909L27.4382 114.653V114.619C27.4041 114.465 27.3189 114.32 27.1399 114.175L26.3387 113.425L25.2647 114.593L25.3243 114.67L25.4351 114.798C26.296 115.728 27.0717 116.163 27.8559 116.316L26.1085 117.323L22.3921 113.885V113.868Z" fill="#00529B"></path><path d="M27.191 118.227C27.2422 118.219 27.2763 118.219 27.3274 118.202C27.8644 118.065 28.0946 117.894 28.4526 117.434L30.9671 114.03C31.291 113.587 31.4103 113.297 31.4444 112.793V112.657L33.8055 114.406C33.7544 114.423 33.7118 114.44 33.6692 114.457C33.243 114.602 33.0043 114.755 32.706 115.097C32.6719 115.148 32.6122 115.199 32.5866 115.259L30.0891 118.611C30.3449 118.833 30.5921 119.02 30.8478 119.191C31.8365 119.882 32.3309 120.053 32.8935 120.044L31.2484 121.264L27.1996 118.244L27.191 118.227Z" fill="#00529B"></path><path d="M35.2546 122.245L37.5049 118.304L37.6498 118.364C38.6812 118.807 38.8431 119.438 38.1271 120.863C38.0248 121.042 37.914 121.238 37.7947 121.434C36.9935 122.697 36.4053 122.936 35.6467 122.526C35.57 122.475 35.4933 122.424 35.4251 122.381L35.3228 122.296L35.2716 122.245H35.2546ZM35.6978 123.959C36.124 124.207 36.7122 124.301 37.3088 124.19C38.255 124.019 39.0477 123.396 39.7467 122.1C40.7525 120.3 40.6331 119.037 39.6188 118.159C39.5165 118.082 39.3801 117.988 39.2523 117.911L35.9791 116.043C35.9791 116.095 35.9876 116.137 35.9791 116.171C35.9791 116.7 35.9024 116.99 35.6296 117.459L33.5413 121.127C33.2771 121.605 33.0043 121.827 32.4673 121.997C32.4247 122.015 32.3735 122.023 32.3224 122.04L35.6893 123.959H35.6978Z" fill="#00529B"></path><path d="M43.6591 121.818L44.5626 120.53L49.6087 122.305L48.7137 123.576L48.5688 123.49C48.1853 123.234 48.0233 123.149 47.5033 122.953L47.3414 122.902L45.9094 126.962C45.7304 127.474 45.7304 127.815 45.9264 128.335C45.935 128.378 45.9605 128.412 45.9776 128.463L43.0028 127.414C43.0454 127.389 43.088 127.372 43.1391 127.346C43.642 127.073 43.8296 126.817 44.0256 126.288L45.4491 122.228L45.236 122.168L44.6564 121.989L44.6052 121.972C44.4859 121.938 44.3154 121.904 43.9063 121.844L43.6761 121.793L43.6591 121.818Z" fill="#00529B"></path><path d="M50.3162 125.862C50.4782 124.318 51.2453 123.584 52.1744 123.695C52.8307 123.772 53.3763 124.36 53.5468 125.427C53.6235 125.853 53.6149 126.374 53.4871 126.971C53.1973 128.446 52.575 128.975 51.6374 128.805C51.0152 128.685 50.589 128.199 50.3503 127.158C50.2651 126.791 50.2395 126.408 50.3162 125.862ZM51.6545 130.093C52.8222 130.187 53.9048 129.726 54.6634 128.83C54.9617 128.489 55.2004 128.08 55.3623 127.636C56.2914 125.179 54.8594 122.782 51.8761 122.697C51.143 122.68 50.5549 122.851 49.9497 123.234C49.1655 123.746 48.6115 124.522 48.3557 125.444C47.7079 127.721 49.0717 129.879 51.6459 130.093H51.6545Z" fill="#00529B"></path><path d="M55.6266 123.849L58.3031 123.925L59.3003 128.131L60.1612 125.384C60.3488 124.813 60.3232 124.548 60.0078 124.087C59.9822 124.053 59.9567 124.002 59.9311 123.985L62.3945 124.053L63.3918 128.336L64.2953 125.521C64.4743 124.941 64.4317 124.668 64.1589 124.215C64.1419 124.164 64.1078 124.139 64.0737 124.105L66.2217 124.164L63.6645 131.475H63.5878L63.5282 131.458C63.4429 131.441 63.3406 131.406 63.2469 131.364C62.4712 131.074 62.1388 130.758 61.8831 130.093L61.7382 129.555L61.0136 127.073L59.5561 131.364C59.4879 131.355 59.4282 131.338 59.3771 131.33C58.3627 131.065 58.0388 130.741 57.7575 129.914C57.7405 129.854 57.7149 129.803 57.7064 129.752L56.4619 125.273C56.3085 124.727 56.155 124.429 55.7288 123.96C55.6862 123.917 55.6521 123.883 55.618 123.849H55.6266Z" fill="#00529B"></path><path d="M66.9292 130.98C66.9547 130.937 66.9888 130.895 67.0144 130.86C67.3298 130.383 67.3895 130.093 67.3213 129.521L66.8184 125.341C66.7417 124.77 66.6138 124.514 66.2558 124.113C66.2217 124.079 66.1876 124.045 66.162 124.002L68.6339 123.704L71.873 127.286L71.5576 124.753C71.4809 124.181 71.3701 123.908 71.0206 123.524C70.9865 123.49 70.9524 123.456 70.9098 123.414L73.1431 123.132C73.126 123.183 73.1004 123.217 73.0749 123.269C72.8277 123.738 72.7936 123.977 72.8703 124.582L73.6033 130.553C73.5522 130.57 73.4925 130.57 73.4499 130.588C72.4782 130.715 71.9838 130.494 71.0547 129.479L70.6456 129.018L68.2504 126.374L68.6254 129.368C68.6851 129.897 68.8385 130.212 69.2306 130.596C69.2647 130.622 69.3073 130.656 69.3414 130.69L66.9377 130.988L66.9292 130.98Z" fill="#00529B"></path><path d="M74.4898 127.824C74.9331 128.156 75.4274 128.344 76.0838 128.395C77.5158 128.515 78.0187 127.935 77.8738 127.457C77.7971 127.201 77.6436 127.09 77.0896 126.971L76.8509 126.937L76.5952 126.885C76.4503 126.851 76.2628 126.8 75.9815 126.698C75.8962 126.681 75.8025 126.629 75.7173 126.604C75.0012 126.305 74.6603 126.015 74.3961 125.529C73.6119 124.122 74.2511 122.68 76.2628 122.236C76.6549 122.143 77.0981 122.108 77.6181 122.125C77.6863 122.125 77.7459 122.125 77.8141 122.125L78.1551 123.567C77.8653 123.414 77.5754 123.32 77.226 123.303C76.8594 123.277 76.51 123.32 76.2798 123.388C76.1093 123.456 76.0241 123.507 75.9389 123.576C75.7002 123.789 75.7258 124.113 76.0071 124.318C76.2713 124.531 76.51 124.633 77.1493 124.761C78.7944 125.051 79.2632 125.461 79.4848 126.536C79.7916 128.105 78.7517 129.461 76.1605 129.666C76.0241 129.675 75.8877 129.683 75.7428 129.683H75.5723H75.3848L74.5069 127.815L74.4898 127.824Z" fill="#00529B"></path><path d="M80.9424 128.463C80.9594 128.412 80.9935 128.37 80.9935 128.327C81.1896 127.79 81.2066 127.457 81.0106 126.945L79.553 122.987C79.3569 122.45 79.1779 122.219 78.7517 121.904C78.7091 121.887 78.6665 121.861 78.6409 121.827L81.3856 120.812C81.3686 120.863 81.36 120.906 81.3345 120.931C81.2066 121.46 81.2151 121.767 81.4027 122.296L81.8374 123.465L83.849 122.723L83.4143 121.554C83.2182 121.025 83.0307 120.778 82.596 120.488C82.5534 120.462 82.5108 120.436 82.4681 120.402L85.2128 119.387C85.1958 119.43 85.1958 119.473 85.1787 119.532C85.0509 120.044 85.0679 120.326 85.2639 120.863L86.7301 124.821C86.9091 125.324 87.1562 125.589 87.6421 125.853C87.6762 125.887 87.7273 125.904 87.77 125.93L84.8122 127.022C84.8292 126.971 84.8548 126.936 84.8633 126.894C85.0253 126.45 85.0253 126.152 84.9145 125.717C84.8974 125.648 84.8804 125.58 84.8463 125.52L84.2752 123.976L82.3232 124.693L82.9028 126.228C82.9199 126.297 82.9369 126.356 82.971 126.425C83.1586 126.809 83.3717 127.039 83.7723 127.278C83.8064 127.303 83.8575 127.329 83.9001 127.346L80.9424 128.446V128.463Z" fill="#00529B"></path><path d="M85.4344 119.191L88.2302 117.809C88.2132 117.86 88.1961 117.894 88.1791 117.946C88.0598 118.5 88.0939 118.824 88.3411 119.319L90.2078 123.098C90.472 123.618 90.6425 123.831 91.0857 124.087C91.1198 124.104 91.1539 124.139 91.1965 124.156L88.6138 125.435C88.6138 125.392 88.6223 125.35 88.6394 125.307C88.6991 124.804 88.6394 124.497 88.3922 123.985L86.5255 120.206C86.2698 119.694 86.0652 119.481 85.5538 119.242C85.5111 119.225 85.477 119.208 85.4259 119.191H85.4344Z" fill="#00529B"></path><path d="M92.1001 123.755C92.1001 123.755 92.1256 123.669 92.1342 123.618C92.2364 123.072 92.1597 122.714 91.8785 122.262L89.6537 118.688C89.3554 118.202 89.1508 118.014 88.6735 117.775C88.6223 117.758 88.5883 117.741 88.5371 117.724L91.546 115.847C91.6057 115.813 91.6654 115.779 91.7335 115.745C93.4127 114.858 94.5464 115.267 95.0493 116.683C95.3647 117.562 95.0493 118.517 94.1032 119.097C93.6003 119.413 93.2593 119.532 92.9269 119.549C93.2082 119.43 93.4298 119.182 93.5236 118.85C93.677 118.372 93.6088 118.005 93.3105 117.57C93.2593 117.476 93.1996 117.4 93.1229 117.314C92.6456 116.768 92.1342 116.717 91.3926 117.289L91.2903 117.366L91.2136 117.417L93.5832 121.204C93.8816 121.682 94.1287 121.887 94.6657 122.049C94.7169 122.057 94.7595 122.066 94.8107 122.074L92.1086 123.755H92.1001Z" fill="#00529B"></path><path d="M78.7603 25.8444V28.4376C80.6952 29.1712 82.5875 30.0327 84.403 31.0478V28.284C82.5875 27.3286 80.6952 26.5268 78.7603 25.8444Z" fill="#B0876F"></path><path d="M72.035 24.0018V26.4756C73.7227 26.8253 75.3848 27.2604 77.0044 27.7978V25.2387C75.3763 24.7269 73.7227 24.3175 72.035 24.0018Z" fill="#B0876F"></path><path d="M70.279 23.6691C69.6994 23.5838 68.1992 23.4218 67.2019 23.362L69.1283 20.0096L56.6409 24.4966L69.1283 28.975L67.2957 25.6652C68.3612 25.8102 69.7079 26.0405 70.2876 26.1429V23.6691H70.279Z" fill="#B0876F"></path><path d="M38.3232 72.7181C38.434 72.5987 38.5363 72.5219 38.6471 72.4025C39.7552 71.2168 40.1643 70.2614 40.1643 68.6833L40.1899 56.4935C40.1899 54.8557 39.9512 54.1051 39.0988 52.7743C39.0136 52.6634 38.9369 52.544 38.8517 52.4417H49.6428C49.8645 52.4417 50.0775 52.4416 50.3162 52.4672C56.0869 52.8596 58.3627 55.6234 57.374 59.8374C56.7602 62.4903 54.4077 64.3499 51.0152 64.3158C49.1996 64.3158 48.1341 64.0684 47.2476 63.6163C48.1853 63.7869 49.1484 63.4969 49.9412 62.8315C51.0663 61.9017 51.4925 60.8866 51.4414 59.3682C51.4414 59.027 51.4073 58.7455 51.3561 58.4299C50.9811 56.3826 49.7451 55.4528 46.8982 55.7343L46.5231 55.7685L46.2418 55.794V68.6747C46.2418 70.3126 46.5657 71.1826 47.6994 72.3939C47.7932 72.5048 47.9125 72.5901 48.0148 72.7096H38.3147L38.3232 72.7181Z" fill="#00529B"></path><path d="M57.6212 52.4502H66.5456C66.4604 52.5525 66.3837 52.672 66.2984 52.7829C65.446 54.0027 65.2329 54.8131 65.2329 56.4765V66.1498C65.2329 67.9241 66.0001 68.8795 67.7389 69.1098C70.1512 69.451 71.4298 68.325 71.5406 67.054V66.7725L71.5576 66.1327V56.4935C71.5576 56.2973 71.5406 56.1011 71.5406 55.9305C71.4298 54.6425 71.14 53.8833 70.3643 52.7743C70.2791 52.6634 70.2023 52.544 70.1 52.4417H79.0756C78.9989 52.544 78.9137 52.6634 78.8285 52.7743C77.9761 54.0453 77.7033 54.8984 77.7033 56.4935V68.6492C77.7033 70.2614 78.0357 71.0973 79.1183 72.3939C79.2035 72.5048 79.3058 72.5901 79.4166 72.7096H71.4724V71.0973C70.4325 72.0613 69.205 72.7096 67.7049 73.0081C62.1985 74.2024 59.0446 71.2935 59.0446 66.8749V56.4679C59.0446 54.9154 58.7207 53.96 57.8428 52.7743C57.7746 52.6634 57.6893 52.544 57.6126 52.4417L57.6212 52.4502Z" fill="#00529B"></path><path d="M88.2899 68.9733V63.659L88.6053 63.6334L88.8951 63.5993C89.0315 63.5993 89.1679 63.5737 89.2787 63.5737C91.8188 63.5737 92.8843 64.64 92.7308 66.474C92.5944 68.1032 91.9296 68.8624 90.3441 69.1439C89.9776 69.2037 89.6026 69.2036 88.878 69.0928L88.341 69.0075L88.2899 68.9733ZM91.2562 72.7181C91.5034 72.7181 91.7335 72.684 91.9807 72.6499C96.2512 72.1807 98.3139 70.4917 98.7913 67.8985C99.3538 64.9726 97.7514 62.6951 93.873 62.1918C93.5576 62.1321 93.2593 62.1321 92.9439 62.1321C93.157 62.115 93.4042 62.0468 93.6173 61.987C96.4984 61.2876 97.7514 60.2213 98.2372 58.4385C99.0726 55.3249 97.1717 52.7061 93.3531 52.5099L92.3132 52.4587H80.8486C80.9338 52.5611 81.002 52.6549 81.0532 52.7658C81.8033 54.0368 82.0164 54.6851 82.1016 55.9476C82.1272 56.1523 82.1272 56.34 82.1272 56.5362L82.1613 68.6918C82.1613 70.3041 81.8118 71.1997 80.7122 72.411C80.6014 72.5219 80.4991 72.6072 80.3883 72.7267H91.2647L91.2562 72.7181ZM88.2643 60.3322V55.9988L88.5627 55.9391L88.8866 55.9135C89.577 55.8282 90.0543 55.8282 90.455 55.8538C92.1427 56.0841 92.6456 56.5362 92.7564 57.7134V58.1143C92.6712 59.718 91.6824 60.5028 89.3383 60.4516C88.9889 60.4516 88.665 60.426 88.2643 60.3407V60.3322Z" fill="#00529B"></path><path d="M99.064 72.7181C99.1663 72.5987 99.2516 72.5219 99.3539 72.4025C100.428 71.1315 100.692 70.3467 100.692 68.6833L100.667 56.4765C100.667 54.8643 100.394 54.0027 99.567 52.7829C99.4817 52.672 99.405 52.5526 99.3198 52.4502H108.278C108.168 52.5526 108.082 52.672 108.006 52.7829C107.221 53.8577 106.932 54.6169 106.829 55.9135C106.829 56.1097 106.804 56.3059 106.804 56.5021V68.5553C107.844 68.6406 108.781 68.6662 109.71 68.6406C113.384 68.4956 114.901 68.0435 116.265 67.054L114.467 72.7181H99.047H99.064Z" fill="#00529B"></path><path d="M116.342 52.4502H125.854C125.752 52.5526 125.675 52.6464 125.565 52.7573C124.474 54.0283 124.124 54.924 124.124 56.5021V68.6918C124.124 70.3808 124.337 71.14 125.19 72.3854C125.241 72.4963 125.326 72.6157 125.403 72.7266H116.581C116.666 72.6072 116.742 72.4963 116.828 72.411C117.68 71.1827 117.944 70.304 117.944 68.6918L117.97 56.5021C117.97 54.8472 117.706 54.0539 116.632 52.7573C116.529 52.6464 116.453 52.5526 116.333 52.4502H116.342Z" fill="#00529B"></path><path d="M143.439 52.5526V56.7495C143.149 56.5618 142.86 56.3656 142.561 56.1609C142.263 56.0244 141.965 55.8453 141.675 55.7088C136.654 53.3715 132.588 55.9561 132.247 61.424C131.889 67.2161 136.117 70.8244 142.365 69.3657C143.865 68.9989 144.956 68.4274 145.979 67.5317L143.414 72.7096C142.075 73.0423 140.737 73.247 139.407 73.2982C133.296 73.665 129.409 71.5836 127.38 67.6938C126.315 65.6892 125.906 63.386 126.204 61.134C127.065 54.7704 131.923 51.1707 140.123 52.0408C140.686 52.109 141.214 52.1858 141.786 52.2711L142.698 52.4161L143.439 52.5526Z" fill="#00529B"></path><path d="M38.5959 97.0721C38.6982 96.9612 38.7749 96.8759 38.8857 96.765C39.9512 95.494 40.224 94.7092 40.224 93.0544L40.1984 80.839C40.1984 79.2268 39.9342 78.3567 39.1074 77.154C39.0221 77.0345 38.9454 76.9236 38.8602 76.8127H47.8102C47.7164 76.9236 47.6312 77.0345 47.546 77.154C46.7703 78.2202 46.4805 78.988 46.3697 80.276C46.3697 80.4722 46.3441 80.6684 46.3441 80.8732V92.9094C47.3755 92.9947 48.3216 93.0203 49.2593 92.9947C52.916 92.8582 54.4417 92.4061 55.797 91.4251L54.0156 97.0721H38.5959Z" fill="#00529B"></path><path d="M55.3453 76.8127H64.8579C64.7556 76.9236 64.6704 77.0089 64.5595 77.1198C63.46 78.3908 63.119 79.2951 63.119 80.8646V93.0544C63.119 94.7348 63.3321 95.494 64.193 96.7394C64.2442 96.8503 64.3209 96.9698 64.3976 97.0721H55.5839C55.6692 96.9612 55.7459 96.8503 55.8226 96.765C56.6835 95.5196 56.9478 94.6581 56.9478 93.0544L56.9733 80.8646C56.9733 79.2012 56.7091 78.4164 55.6436 77.1198C55.5328 77.0089 55.4561 76.9236 55.3453 76.8127Z" fill="#00529B"></path><path d="M73.2539 93.3359V88.0215L73.5692 87.9874L73.8676 87.9533C73.9954 87.9533 74.1233 87.9362 74.2341 87.9362C76.7742 87.9362 77.8482 89.0025 77.6863 90.828C77.5584 92.4658 76.885 93.2164 75.3166 93.4979C74.9331 93.5491 74.5665 93.5491 73.842 93.4468L73.305 93.3529L73.2539 93.3359ZM76.2116 97.0721C76.4588 97.0721 76.706 97.0465 76.9362 97.0209C81.2151 96.5433 83.2779 94.8543 83.7552 92.2696C84.3178 89.3352 82.7068 87.0491 78.837 86.5458C78.5131 86.4946 78.2233 86.4946 77.9079 86.4946C78.121 86.4605 78.3596 86.4093 78.5813 86.3496C81.4708 85.6501 82.7153 84.5668 83.2097 82.801C84.0365 79.6789 82.1357 77.0601 78.317 76.8639L77.2686 76.8127H65.804C65.8893 76.9236 65.966 77.0089 66.0171 77.1198C66.7672 78.3908 66.9803 79.0391 67.0656 80.3016C67.0911 80.4978 67.0911 80.7025 67.0911 80.8987L67.1167 93.0629C67.1167 94.6666 66.7757 95.5623 65.6762 96.7736C65.5739 96.8845 65.4716 96.9698 65.3523 97.0807H76.2202L76.2116 97.0721ZM73.2283 84.6862V80.3528L73.5096 80.3016L73.842 80.276C74.541 80.1907 75.0098 80.1907 75.4189 80.2249C77.0981 80.4466 77.6095 80.8987 77.7118 82.0759V82.4768C77.6351 84.0805 76.6464 84.8738 74.2938 84.8141C73.9443 84.8141 73.6204 84.7885 73.2283 84.7032V84.6862Z" fill="#00529B"></path><path d="M83.6956 97.0721C83.8064 96.9612 83.9087 96.8759 84.0195 96.765C85.2213 95.5196 85.5878 94.6581 85.5878 93.0544V80.8646C85.5878 79.2012 85.3747 78.442 84.4968 77.154C84.4201 77.0345 84.3348 76.9236 84.2496 76.8127H94.1969C94.6316 76.8127 95.0834 76.8127 95.5011 76.8298C100.206 77.0089 102.235 79.0903 101.792 82.4086C101.544 84.1914 100.667 85.3345 98.8424 86.0681L98.3651 86.2643L98.1179 86.3581L99.5414 88.7978L100.181 89.9579C100.803 90.9901 101.544 92.116 102.405 93.2762C103.155 94.2571 103.982 95.2211 104.894 96.1423L105.372 96.6286L105.849 97.0721H99.9164C98.4162 97.1062 97.8536 96.6286 95.6374 93.1056C93.7963 90.2138 92.782 87.9533 92.1938 85.8719H92.4325L92.7308 85.8463C92.9439 85.8463 93.1826 85.8122 93.4042 85.761C94.3077 85.5563 94.8959 85.2492 95.2965 84.7971C95.8591 84.1402 96.0977 83.637 96.1745 83.1593C96.4898 81.2741 95.3988 80.1225 92.7308 80.2078C92.5433 80.2078 92.3472 80.2078 92.1682 80.2334L91.9807 80.259L91.7676 80.3187V93.0458C91.7421 94.7519 92.0148 95.4599 93.1911 96.7565C93.3019 96.8674 93.4042 96.9527 93.515 97.0636H83.7041L83.6956 97.0721Z" fill="#00529B"></path><path d="M110.742 88.738L112.608 83.2872L114.288 88.738H110.742ZM109.881 97.0636C109.796 96.9868 109.753 96.8674 109.668 96.7906C108.918 95.5964 108.815 94.9907 109.165 93.6344C109.216 93.4382 109.267 93.242 109.318 93.0458L109.506 92.4743H115.379L115.489 93.0458L115.762 94.1547V94.2145C115.873 95.0419 115.66 95.8267 114.987 96.7479C114.901 96.8588 114.825 96.9441 114.739 97.055H124.815C124.704 96.9441 124.627 96.8333 124.525 96.7224C123.4 95.5452 122.863 94.641 122.3 93.0373L116.495 76.7957H109.71C109.77 76.9065 109.796 77.0174 109.847 77.1369C110.298 78.3737 110.281 79.2183 109.634 80.8475L104.911 93.0373C104.272 94.641 103.701 95.5025 102.499 96.7479C102.397 96.8333 102.286 96.9441 102.192 97.055H109.889L109.881 97.0636Z" fill="#00529B"></path><path d="M122.922 97.0721C123.033 96.9612 123.135 96.8759 123.238 96.765C124.448 95.5196 124.823 94.6581 124.823 93.0544V80.8646C124.823 79.2012 124.61 78.442 123.732 77.154C123.647 77.0345 123.57 76.9236 123.485 76.8127H133.424C133.858 76.8127 134.302 76.8127 134.736 76.8298C139.433 77.0089 141.47 79.0903 141.01 82.4086C140.78 84.1914 139.893 85.3345 138.078 86.0681L137.6 86.2643L137.353 86.3581L138.768 88.7978L139.407 89.9579C140.021 90.9901 140.78 92.116 141.624 93.2762C142.374 94.2571 143.2 95.2211 144.104 96.1423L144.59 96.6286L145.084 97.0721H139.143C137.643 97.1062 137.08 96.6286 134.873 93.1056C133.032 90.2138 132.009 87.9533 131.429 85.8719H131.668L131.958 85.8463C132.171 85.8463 132.418 85.8122 132.631 85.761C133.534 85.5563 134.123 85.2492 134.523 84.7971C135.086 84.1402 135.324 83.637 135.41 83.1593C135.725 81.2741 134.625 80.1225 131.949 80.2078C131.77 80.2078 131.574 80.2078 131.386 80.2334L131.207 80.259L130.994 80.3187V93.0458C130.977 94.7519 131.242 95.4599 132.409 96.7565C132.52 96.8674 132.631 96.9527 132.733 97.0636H122.922V97.0721Z" fill="#00529B"></path><path d="M140.822 76.8127H149.534L152.824 84.6862L154.58 80.8646C155.381 79.1415 155.466 78.3823 154.989 77.154C154.938 77.0345 154.887 76.9236 154.827 76.8127H161.714L154.665 89.4802V93.0544C154.691 94.6837 154.989 95.5196 156.054 96.765C156.165 96.8759 156.242 96.9612 156.353 97.0721H146.729C146.849 96.9612 146.925 96.8759 147.028 96.765C148.127 95.5879 148.477 94.6239 148.502 93.0544V89.5314L144.019 80.8646C143.286 79.4315 142.681 78.587 141.632 77.5463L141.189 77.1198L140.839 76.8127H140.822Z" fill="#00529B"></path></g><defs><clipPath id="clip0_820_19905"><rect width="166.096" height="135" fill="white" transform="translate(0 0.987061)"></rect></clipPath></defs></svg> 